<?xml version="1.0" encoding="utf-8"?>
<!-- Generator: Adobe Illustrator 24.3.0, SVG Export Plug-In . SVG Version: 6.00 Build 0)  -->
<svg version="1.1"
	 id="svg16" inkscape:version="1.1 (c4e8f9ed74, 2021-05-24)" sodipodi:docname="image.svg" xmlns:inkscape="http://www.inkscape.org/namespaces/inkscape" xmlns:sodipodi="http://sodipodi.sourceforge.net/DTD/sodipodi-0.dtd" xmlns:svg="http://www.w3.org/2000/svg"
	 xmlns="http://www.w3.org/2000/svg" xmlns:xlink="http://www.w3.org/1999/xlink" x="0px" y="0px" viewBox="0 0 1200 628"
	 style="enable-background:new 0 0 1200 628;" xml:space="preserve">
<style type="text/css">
	.st0{fill:url(#path68832_1_);}
</style>
<sodipodi:namedview  bordercolor="#666666" borderopacity="1.0" id="namedview18" inkscape:current-layer="layer1" inkscape:cx="585.92126" inkscape:cy="301.03937" inkscape:document-units="mm" inkscape:pagecheckerboard="0" inkscape:pageopacity="0.0" inkscape:pageshadow="2" inkscape:window-height="1309" inkscape:window-maximized="1" inkscape:window-width="2240" inkscape:window-x="0" inkscape:window-y="0" inkscape:zoom="1.1759259" pagecolor="#ffffff" showgrid="false" units="px">
	</sodipodi:namedview>
<g id="layer1" inkscape:groupmode="layer" inkscape:label="鍥惧眰 1">
	<g id="g69122">
		<g id="g68868">
			<g id="text2142">
				<linearGradient id="path68832_1_" gradientUnits="userSpaceOnUse" x1="910.1028" y1="0.3002" x2="236.6973" y2="673.7058">
					<stop  offset="0" style="stop-color:#FF3CAC"/>
					<stop  offset="0.513" style="stop-color:#7848A0"/>
					<stop  offset="1" style="stop-color:#2B86C5"/>
				</linearGradient>
				<path id="path68832" class="st0" d="M901,441.1c2.4,3.6,4.9,8.4,5.9,11.6l5.9-2.1c-1-3.2-3.6-7.8-6-11.2L901,441.1z
					 M943.1,474.2v-6h-21.4v-9.7h19.8v-5.9h-11.6c2.2-3.4,4.4-7.7,6.5-11.7l-6.1-1.7c-1.5,3.9-4.3,9.6-6.6,13.4h-27.4v5.9h18.6v9.7
					h-20.6v6h20.6v16.5h6.8v-16.5H943.1z M960.5,421.2v-6.7h-38.2V405h-7.8v9.5h-37.9v6.7h37.9v10.2h-32.7v61.2h7V438h59.4v46.3
					c0,1.5-0.5,2-2.2,2.1c-1.6,0.1-7.5,0.1-13.5-0.2c1,1.8,2.1,4.5,2.6,6.4c7.7,0,13.2,0,16.2-1.2c3.1-1.1,4.1-3,4.1-7.2v-52.9
					h-33.1v-10.2L960.5,421.2z M811.2,446c-3.9,1.2-8,2.4-11.8,3.5v-18.5h11.2v-6.6h-11.2V405h-7v19.3H779v6.6h13.3v20.6
					c-5.5,1.5-10.5,2.9-14.5,3.9l2,6.9c3.7-1.2,8-2.4,12.5-3.7v25.5c0,1.4-0.5,1.8-1.8,1.8c-1.2,0.1-5.2,0.1-9.5,0
					c1,1.8,1.9,4.7,2.2,6.5c6.4,0.1,10.3-0.1,12.7-1.2c2.5-1.2,3.5-3.1,3.5-7.1v-27.6l12.7-3.9L811.2,446z M854.7,456.8v9.5h-31.1
					v-9.5H854.7z M823.6,482.3v-10.1h31.1v10.1H823.6z M816.8,492.6h6.8v-4.4h31.1v4h7v-41.5h-44.9V492.6z M831.1,436.2
					c-6.1,0-7.3-0.6-7.3-3.8v-6.9c12.5-2.4,26.5-5.7,36.2-9.5l-5.5-5.3c-7.2,3.2-19.4,6.5-30.7,8.9v-14.3h-7v27.1
					c0,8.3,3,10.4,13.9,10.4h22.4c9.5,0,11.7-3.3,12.8-15.7c-1.9-0.5-4.9-1.5-6.5-2.8c-0.6,10.4-1.4,12-6.7,12L831.1,436.2z
					 M711.1,417.3v18.1h-18v-18.1H711.1z M693.2,461.1V442h18v19.1L693.2,461.1z M717.8,467.7v-56.8h-31.3v65.7h6.7v-8.8
					L717.8,467.7z M732.9,455.5c0.5-4.3,0.6-8.5,0.6-12.5v-4.3h26.8v16.8H732.9z M760.3,415.8v16.4h-26.8v-16.4H760.3z M767.2,409
					h-40.6v34c0,14.9-1.6,32.9-17.8,45.3c1.4,1,4.1,3.4,5.3,4.9c10.8-8.4,15.7-19.8,17.9-31.2h28.3v21.1c0,1.7-0.7,2.3-2.5,2.4
					c-1.5,0-7.6,0.1-13.8-0.1c1.2,1.8,2.3,5,2.7,6.9c8.2,0,13.4-0.2,16.5-1.2c3.1-1.2,4-3.5,4-8V409z M609,419.3
					c2.2,3.9,4.5,8.5,5.5,11.7l6.2-2.6c-0.9-2.4-2.6-6-4.4-9.1h13.5v-6h-23.3c1.1-2.3,2-4.5,2.9-6.9l-6.8-1.6
					c-3.1,9-8.5,17.7-15.1,23.3c1.7,1,4.5,2.9,6,3.9c3.4-3.4,6.8-7.8,9.8-12.7L609,419.3z M593,492.5h6.9v-50.6H593V492.5z
					 M597.4,433.6c4,3.6,8.6,8.6,10.7,12.1l5.5-3.9c-2.1-3.4-6.9-8.3-10.9-11.7L597.4,433.6z M619.5,475.5v-8.5h22.4v8.5H619.5z
					 M641.9,453.7v8h-22.4v-8H641.9z M648.3,448.1h-35V481h35V448.1z M668,433.7h-51.7v6.5H661V484c0,1.3-0.4,1.7-1.9,1.8
					c-1.3,0.1-6.5,0.1-11.9-0.1c1.1,1.8,2,4.4,2.3,6.3c7.3,0,12-0.1,14.8-1.2c2.8-1.1,3.7-2.9,3.7-6.9L668,433.7z M643.8,413.4
					c1.1-2.3,1.8-4.6,2.5-7l-6.7-1.5c-2.4,8.3-6.8,16.1-12.2,21.3c1.7,0.9,4.6,2.9,5.9,4c2.7-3,5.4-6.6,7.6-10.8h7.4
					c2.8,4,5.7,8.9,6.8,12.2l6.1-2.8c-1.1-2.6-3.1-6.1-5.4-9.4h15.6v-6H643.8z M1147.6,278.2c1.7,0,2.9,0.8,3.8,2.3
					c1,1.5,1.5,3.6,1.5,6.3c0,4.6-1.1,8.6-3.3,11.9c-7.6,11.6-18.3,17.5-32.3,17.5c-6,0-11.4-1.2-16.1-3.5
					c-4.6-2.4-8.4-5.9-11.3-10.4c-7.4,9.1-16.1,13.6-25.9,13.6c-7,0-12.6-2-16.7-6.1c-4.1-4.1-6.1-9.5-6.1-16.3
					c0-6.4,1.5-11.6,4.4-15.6c2.9-4,7.1-6,12.5-6c4.6,0,6.9,1.7,6.9,5.2c0,1-0.1,2.8-0.4,5.4l-0.6,7.3c0,3.8,1.7,5.8,5,5.8
					c2.4,0,4.7-1.4,6.9-4.2c2.3-2.9,4.2-6.9,5.6-11.9c1.5-5,2.3-10.5,2.3-16.5c0-4.6-0.6-8.4-1.7-11.5c-1.2-3.2-2.6-4.8-4.2-4.8
					c-1.4,0-2.4,0.4-3.1,1.2c-0.6,0.6-1.3,1.8-1.9,3.5c-0.8,2-1.8,3.7-3.1,5c-1.3,1.2-3.5,1.7-6.7,1.7c-2.8,0-5.1-1-6.7-2.9
					c-1.7-2-2.5-5.1-2.5-9.2c0-6.5,2-11.6,6-15.4c4-3.7,9.1-5.6,15.4-5.6c5.4,0,10.2,1.3,14.6,4c4.4,2.6,7.7,6.3,10,11.3
					c3.8-5.1,8.1-9,12.9-11.5c4.9-2.6,9.6-3.8,14.2-3.8c5,0,8.8,1.2,11.3,3.5c2.7,2.3,4,6,4,11.1c0,5.8-1.1,10.3-3.3,13.6
					c-2.2,3.2-4.8,4.8-7.9,4.8c-2.8,0-4.7-0.6-5.8-1.7c-1-1.2-1.8-2.8-2.3-5c-0.3-1.5-0.6-2.7-1.2-3.5c-0.5-0.8-1.4-1.2-2.7-1.2
					c-1.5,0-3.2,1.5-5,4.4c-1.7,2.8-3.1,6.6-4.4,11.3c-1.2,4.7-1.7,9.7-1.7,14.8c0,5.8,1.3,10.4,3.8,13.8c2.7,3.5,5.9,5.2,9.6,5.2
					c7,0,14-5.1,20.9-15.2C1143.7,279.2,1145.5,278.2,1147.6,278.2L1147.6,278.2z M978.1,316.2c-5.8,0-10.5-2.6-14.2-7.9
					c-3.6-5.4-5.4-12-5.4-20c0-9.6,0.6-18.4,1.9-26.3c1.3-8.1,3.4-16.6,6.3-25.5c1.3-3.8,3.1-6.6,5.4-8.3c2.3-1.7,6-2.5,10.9-2.5
					c2.8,0,4.7,0.4,5.8,1.3c1.2,0.9,1.7,2.2,1.7,4c0,1-0.7,4.5-2.1,10.4c-1.3,4.7-2.3,9-3.1,12.9c-2.6,13.4-3.8,22.4-3.8,26.9
					c0,2.7,0.3,4.6,1,5.8c0.6,1,1.7,1.5,3.1,1.5c1.9,0,4.3-1.9,7.1-5.8c2.9-3.8,6-9.7,9.2-17.5c3.3-7.8,6.5-17.4,9.6-28.8
					c1-3.8,2.6-6.6,4.6-8.3c2.2-1.7,5.4-2.5,9.6-2.5c2.9,0,5,0.4,6.1,1.2c1.2,0.6,1.7,1.9,1.7,3.8c0,3.2-1.6,12-4.8,26.3
					c-3.6,16.4-5.4,26.5-5.4,30.3c0,2.4,0.5,4.4,1.5,5.8c1,1.3,2.4,1.9,4,1.9c2.6,0,5.6-1.5,9-4.6c3.6-3.2,8.3-8.3,14.2-15.4
					c1.5-1.8,3.3-2.7,5.2-2.7c1.7,0,2.9,0.8,3.8,2.3c1,1.5,1.5,3.6,1.5,6.3c0,5.1-1.2,9.1-3.6,11.9c-5.5,6.8-11.5,12.4-17.9,16.7
					c-6.3,4.4-13.4,6.5-21.5,6.5c-6.1,0-10.7-2.4-13.6-7.1c-2.8-4.7-4.2-11.4-4.2-20c-2.2,8.7-5.4,15.4-9.8,20.2
					C987.8,313.9,983.1,316.2,978.1,316.2L978.1,316.2z M876.9,316.2c-4.9,0-8.3-2.6-10.4-7.7c-1.9-5.1-2.9-13.3-2.9-24.6
					c0-16.6,2.4-32.4,7.1-47.4c1.2-3.7,3-6.4,5.6-8.1c2.7-1.8,6.4-2.7,11.1-2.7c2.6,0,4.4,0.3,5.4,1c1,0.6,1.5,1.9,1.5,3.6
					c0,2-1,6.7-2.9,13.8c-1.3,5.1-2.3,9.6-3.1,13.4c-0.8,3.8-1.4,8.6-1.9,14.2c4.2-11,9-20,14.2-26.9c5.2-6.9,10.4-11.8,15.4-14.8
					c5.1-2.9,9.8-4.4,14-4.4c8.3,0,12.5,4.2,12.5,12.5c0,5-1.4,14-4.2,27.1c-2.4,11.1-3.6,18.5-3.6,22.1c0,5.1,1.9,7.7,5.6,7.7
					c2.6,0,5.6-1.5,9-4.6c3.6-3.2,8.3-8.3,14.2-15.4c1.5-1.8,3.3-2.7,5.2-2.7c1.7,0,2.9,0.8,3.8,2.3c1,1.5,1.5,3.6,1.5,6.3
					c0,5.1-1.2,9.1-3.6,11.9c-5.5,6.8-11.5,12.4-17.9,16.7c-6.3,4.4-13.4,6.5-21.5,6.5c-6.5,0-11.5-1.9-14.8-5.6
					c-3.3-3.8-5-9.3-5-16.5c0-3.6,0.9-10,2.7-19.2c1.7-8.1,2.5-13.6,2.5-16.7c0-2-0.7-3.1-2.1-3.1c-1.7,0-4,2.2-7.1,6.5
					c-2.9,4.2-6,9.9-9.2,16.9c-3.1,7-5.6,14.5-7.5,22.3c-1.4,6-3.1,10.1-5,12.3C883.8,315.2,880.9,316.2,876.9,316.2L876.9,316.2z
					 M841.2,213.1c-5.4,0-9.4-1.2-12.1-3.6c-2.7-2.6-4-6.1-4-10.6s1.7-8.2,5.2-11.1c3.6-3.1,8-4.6,13.2-4.6c4.7,0,8.6,1.2,11.5,3.5
					c2.9,2.3,4.4,5.6,4.4,9.8c0,5.1-1.7,9.2-5,12.3C851.1,211.6,846.7,213.1,841.2,213.1L841.2,213.1z M839.7,316.2
					c-8.3,0-14.4-2.9-18.2-8.8c-3.7-5.9-5.6-13.7-5.6-23.4c0-5.8,0.7-13.1,2.1-22.1c1.5-9.1,3.5-17.5,5.8-25.3
					c1.2-4.1,2.7-6.9,4.6-8.4c1.9-1.5,5-2.3,9.2-2.3c6.5,0,9.8,2.2,9.8,6.5c0,3.2-1.2,10.6-3.6,22.3c-3.1,14.1-4.6,23.6-4.6,28.6
					c0,3.8,0.5,6.8,1.5,8.8c1,2,2.8,3.1,5.2,3.1c2.3,0,5.2-1.6,8.6-4.8c3.5-3.2,8.1-8.3,13.8-15.2c1.5-1.8,3.3-2.7,5.2-2.7
					c1.7,0,2.9,0.8,3.8,2.3c1,1.5,1.5,3.6,1.5,6.3c0,5.1-1.2,9.1-3.6,11.9C862.5,308.5,850.7,316.2,839.7,316.2L839.7,316.2z
					 M826.2,272.4c1.7,0,2.9,0.8,3.8,2.3c1,1.5,1.5,3.6,1.5,6.3c0,5.1-1.2,9.1-3.6,11.9c-5.5,6.8-11.5,12.4-18,16.7
					c-6.4,4.4-13.7,6.5-21.9,6.5c-11.3,0-19.6-5.1-25.2-15.4c-5.4-10.2-8.1-23.5-8.1-39.7c0-15.6,2-33.4,6-53.4
					c4.1-20,10-37.1,17.9-51.5c7.9-14.3,17.3-21.5,28.2-21.5c6.1,0,10.9,2.9,14.4,8.6c3.6,5.6,5.4,13.8,5.4,24.4
					c0,15.2-4.2,32.9-12.7,53c-8.4,20.1-19.9,40-34.4,59.7c0.9,5.2,2.4,9,4.4,11.3c2,2.2,4.7,3.3,8.1,3.3c5.2,0,9.9-1.5,13.8-4.4
					c4-3.1,9-8.3,15.2-15.6C822.6,273.3,824.3,272.4,826.2,272.4L826.2,272.4z M802.6,153.8c-2.9,0-6.3,5.3-10,15.9
					c-3.7,10.6-7,23.8-9.8,39.6s-4.4,30.8-4.6,45.3c9.1-15,16.3-30,21.7-44.9c5.4-15.1,8.1-28.9,8.1-41.3
					C808,158.6,806.2,153.8,802.6,153.8L802.6,153.8z M763.6,272.4c1.7,0,2.9,0.8,3.8,2.3c1,1.5,1.5,3.6,1.5,6.3
					c0,5.1-1.2,9.1-3.6,11.9c-5.9,6.8-12,12.4-18.2,16.7c-6.1,4.4-13.2,6.5-21.1,6.5c-6.5,0-11.5-1.9-14.8-5.6
					c-3.3-3.8-5-9.3-5-16.5c0-3.6,0.9-10,2.7-19.2c1.7-8.1,2.5-13.6,2.5-16.7c0-2-0.7-3.1-2.1-3.1c-1.7,0-4,2.2-7.1,6.5
					c-3.1,4.2-6.1,9.9-9.2,16.9c-3.1,7-5.6,14.5-7.5,22.3c-2.4,10.2-8.4,15.4-18,15.4c-3.8,0-6.4-1.3-7.7-4c-1.2-2.8-1.7-7.8-1.7-15
					c0-4.1,0.1-7.4,0.2-9.8l0.2-15.4c0-19.7,2-40.3,6-61.6c4.1-21.4,10-39.3,17.9-53.8c7.9-14.6,17.4-21.9,28.4-21.9
					c5.9,0,10.6,2.6,14.2,7.7c3.7,5,5.6,11.5,5.6,19.6c0,12.9-3.8,26.4-11.3,40.3c-7.6,13.8-19.8,30-36.9,48.6
					c-0.4,6.7-0.6,13.5-0.6,20.5c4.2-10.9,8.9-19.7,14-26.5c5.2-6.9,10.4-11.8,15.4-14.8c5.1-2.9,9.8-4.4,14-4.4
					c8.3,0,12.5,4.2,12.5,12.5c0,5-1.4,14-4.2,27.1c-2.4,11.1-3.6,18.5-3.6,22.1c0,5.1,1.9,7.7,5.6,7.7c2.6,0,5.6-1.5,9-4.6
					c3.6-3.2,8.3-8.3,14.2-15.4C760,273.3,761.7,272.4,763.6,272.4z M706.6,153.8c-2.3,0-4.9,3.3-7.7,10c-2.8,6.5-5.6,15.4-8.3,26.7
					c-2.6,11.1-4.7,23.3-6.3,36.5c7.9-9.3,14.5-19.5,19.6-30.5c5.2-11,7.9-21,7.9-30c0-4.1-0.4-7.2-1.3-9.4
					C709.6,154.9,708.3,153.8,706.6,153.8L706.6,153.8z M623.1,316.2c-12.5,0-22.3-3.5-29.4-10.6c-6.9-7.2-10.4-16.6-10.4-28.2
					c0-10.4,2-19.5,6.1-27.3c4.1-7.8,9.4-13.8,15.9-18c6.5-4.2,13.4-6.3,20.5-6.3c7,0,12.5,2.1,16.3,6.3c4,4.1,6,9.4,6,15.9
					c0,5.4-1.2,9.9-3.6,13.6c-2.3,3.7-5.4,5.6-9.2,5.6c-2.4,0-4.4-0.6-6-1.7c-1.4-1.2-2.1-2.8-2.1-4.8c0-0.9,0.1-1.9,0.4-3.1
					c0.3-1.2,0.4-2,0.6-2.5c0.6-1.9,1-3.7,1-5.4c0-1.7-0.4-2.9-1.3-3.8c-0.8-0.9-1.9-1.3-3.5-1.3c-2.9,0-5.7,1.3-8.3,4
					c-2.6,2.6-4.6,6.1-6.1,10.6c-1.5,4.5-2.3,9.4-2.3,14.8c0,14.8,6.5,22.3,19.4,22.3c5.2,0,10.9-1.7,16.9-5.2
					c6.1-3.6,12.2-8.9,18-15.9c1.5-1.8,3.3-2.7,5.2-2.7c1.7,0,2.9,0.8,3.8,2.3c1,1.5,1.5,3.6,1.5,6.3c0,4.9-1.2,8.8-3.6,11.9
					c-6,7.4-13.2,13.2-21.7,17.3C639,314.2,630.9,316.2,623.1,316.2L623.1,316.2z M512.7,316.2c-4.9,0-8.3-2.6-10.4-7.7
					c-1.9-5.1-2.9-13.3-2.9-24.6c0-16.6,2.4-32.4,7.1-47.4c1.2-3.7,3-6.4,5.6-8.1c2.7-1.8,6.4-2.7,11.1-2.7c2.6,0,4.4,0.3,5.4,1
					c1,0.6,1.5,1.9,1.5,3.6c0,2-1,6.7-2.9,13.8c-1.3,5.1-2.3,9.6-3.1,13.4c-0.8,3.8-1.4,8.6-1.9,14.2c4.2-11,9-20,14.2-26.9
					s10.4-11.8,15.4-14.8c5.1-2.9,9.8-4.4,14-4.4c8.3,0,12.5,4.2,12.5,12.5c0,1.7-0.6,5.7-1.7,12.1c-1,5.1-1.5,8.3-1.5,9.6
					c0,4.5,1.6,6.7,4.8,6.7c3.6,0,8.2-2.8,13.8-8.4c1.7-1.7,3.4-2.5,5.2-2.5c1.7,0,2.9,0.8,3.8,2.3c1,1.4,1.5,3.3,1.5,5.8
					c0,4.7-1.3,8.4-3.8,11.1c-3.6,3.7-7.8,6.9-12.7,9.6c-4.7,2.6-9.8,3.8-15.2,3.8c-6.8,0-12-1.7-15.6-5.2c-3.5-3.5-5.2-8.1-5.2-14
					c0-1.9,0.2-3.8,0.6-5.8c0.3-2.6,0.4-4.3,0.4-5.2c0-2-0.7-3.1-2.1-3.1c-1.9,0-4.5,2.2-7.7,6.5c-3.1,4.2-6.1,9.9-9.2,16.9
					c-3.1,7-5.6,14.5-7.5,22.3c-1.4,6-3.1,10.1-5,12.3C519.5,315.2,516.7,316.2,512.7,316.2L512.7,316.2z M432.4,316.2
					c-7.9,0-14.3-2.9-19-8.6c-4.7-5.8-7.1-13.3-7.1-22.7c0-10.2,2.4-19.9,7.1-29c4.7-9.2,11-16.6,18.8-22.1
					c7.9-5.6,16.3-8.4,25.2-8.4c2.8,0,4.7,0.6,5.6,1.7c1,1,1.9,2.9,2.5,5.8c2.7-0.5,5.5-0.8,8.4-0.8c6.3,0,9.4,2.2,9.4,6.7
					c0,2.7-1,9.1-2.9,19.2c-2.9,14.7-4.4,25-4.4,30.7c0,1.9,0.4,3.5,1.3,4.6c1,1.2,2.3,1.7,3.8,1.7c2.4,0,5.4-1.5,8.8-4.6
					c3.5-3.2,8.1-8.3,14-15.4c1.5-1.8,3.3-2.7,5.2-2.7c1.7,0,2.9,0.8,3.8,2.3c1,1.5,1.5,3.6,1.5,6.3c0,5.1-1.2,9.1-3.6,11.9
					c-5.2,6.5-10.8,12-16.7,16.5c-5.9,4.5-11.6,6.7-17.1,6.7c-4.2,0-8.1-1.4-11.7-4.2c-3.5-2.9-6.1-6.9-7.9-11.9
					C450.9,310.8,442.6,316.2,432.4,316.2L432.4,316.2z M439.4,296.8c2.8,0,5.5-1.7,8.1-5s4.4-7.7,5.6-13.2l7.1-35.3
					c-5.4,0.1-10.4,2.2-15,6.1c-4.5,3.8-8.1,9-10.8,15.4c-2.7,6.4-4,13.2-4,20.4c0,4,0.8,6.9,2.3,8.8
					C434.3,295.9,436.5,296.8,439.4,296.8L439.4,296.8z M236.9,134c-16,39.3-25.7,65-43.5,103.1c10.9,11.6,24.4,25.1,46.2,40.3
					c-23.4-9.6-39.4-19.3-51.4-29.4C165.4,295.7,129.6,363.6,57,494c57.1-32.9,101.3-53.2,142.5-61c-1.8-7.6-2.8-15.8-2.7-24.4
					l0.1-1.8c0.9-36.6,19.9-64.7,42.4-62.8c22.5,1.9,40,33.1,39.1,69.7c-0.2,6.9-0.9,13.5-2.3,19.6c40.8,8,84.5,28.2,140.8,60.7
					c-11.1-20.4-21-38.8-30.5-56.4c-14.9-11.5-30.4-26.6-62.1-42.9c21.8,5.7,37.4,12.2,49.6,19.5C277.7,235.2,269.9,211.4,236.9,134
					L236.9,134z"/>
			</g>
		</g>
	</g>
</g>
</svg>
