<?xml version="1.0" encoding="UTF-8" standalone="no"?>
<!-- Created with Inkscape (http://www.inkscape.org/) -->

<svg
   width="1200"
   height="628"
   viewBox="0 0 317.49999 166.15834"
   version="1.1"
   id="svg16"
   inkscape:version="1.1 (c4e8f9ed74, 2021-05-24)"
   sodipodi:docname="image.svg"
   xmlns:inkscape="http://www.inkscape.org/namespaces/inkscape"
   xmlns:sodipodi="http://sodipodi.sourceforge.net/DTD/sodipodi-0.dtd"
   xmlns:xlink="http://www.w3.org/1999/xlink"
   xmlns="http://www.w3.org/2000/svg"
   xmlns:svg="http://www.w3.org/2000/svg">
  <sodipodi:namedview
     id="namedview18"
     pagecolor="#ffffff"
     bordercolor="#666666"
     borderopacity="1.0"
     inkscape:pageshadow="2"
     inkscape:pageopacity="0.0"
     inkscape:pagecheckerboard="0"
     inkscape:document-units="mm"
     showgrid="false"
     units="px"
     inkscape:zoom="1.1759259"
     inkscape:cx="585.92126"
     inkscape:cy="301.03937"
     inkscape:window-width="2240"
     inkscape:window-height="1309"
     inkscape:window-x="0"
     inkscape:window-y="0"
     inkscape:window-maximized="1"
     inkscape:current-layer="layer1" />
  <defs
     id="defs13">
    <linearGradient
       inkscape:collect="always"
       id="linearGradient69287">
      <stop
         style="stop-color:#ff3cac;stop-opacity:1"
         offset="0"
         id="stop69283" />
      <stop
         style="stop-color:#784ba0;stop-opacity:1"
         offset="0.5"
         id="stop70904" />
      <stop
         style="stop-color:#2b86c5;stop-opacity:1"
         offset="1"
         id="stop69285" />
    </linearGradient>
    <linearGradient
       inkscape:collect="always"
       xlink:href="#linearGradient69287"
       id="linearGradient69289"
       x1="242.91948"
       y1="0.23328401"
       x2="77.227654"
       y2="165.92511"
       gradientUnits="userSpaceOnUse" />
  </defs>
  <g
     inkscape:label="图层 1"
     inkscape:groupmode="layer"
     id="layer1">
    <g
       id="g69122">
      <g
         id="g68868">
        <g
           aria-label="archlinux
简明指南"
           id="text2142"
           style="font-size:26.8422px;line-height:1.25;stroke-width:0.671057">
          <path
             id="path68832"
             style="font-size:25.4px;font-family:'Noto Sans CJK SC';-inkscape-font-specification:'Noto Sans CJK SC';text-align:center;text-anchor:middle;fill:url(#linearGradient69289)"
             d="m 238.39334,116.70808 c 0.635,0.9398 1.2954,2.2098 1.5494,3.0734 l 1.5494,-0.5588 c -0.254,-0.8382 -0.9398,-2.0574 -1.6002,-2.9718 z m 11.1252,8.763 v -1.5748 h -5.6642 v -2.5654 h 5.2324 v -1.5494 h -3.0734 c 0.5842,-0.889 1.1684,-2.032 1.7272,-3.0988 l -1.6256,-0.4572 c -0.4064,1.0414 -1.143,2.54 -1.7526,3.556 h -7.239 v 1.5494 h 4.9276 v 2.5654 h -5.461 v 1.5748 h 5.461 v 4.3688 h 1.8034 v -4.3688 z m 4.6228,-14.0208 v -1.778 h -10.1092 v -2.5146 h -2.0574 v 2.5146 h -10.033 v 1.778 h 10.033 v 2.6924 h -8.6614 v 16.1798 h 1.8542 v -14.4272 h 15.7226 v 12.2428 c 0,0.4064 -0.127,0.5334 -0.5842,0.5588 -0.4318,0.0254 -1.9812,0.0254 -3.5814,-0.0508 0.254,0.4826 0.5588,1.1938 0.6858,1.7018 2.032,0 3.4798,0 4.2926,-0.3048 0.8128,-0.2794 1.0922,-0.7874 1.0922,-1.905 v -13.9954 h -8.763 v -2.6924 z m -39.52236,6.5532 c -1.0414,0.3302 -2.1082,0.635 -3.1242,0.9144 v -4.9022 h 2.9718 v -1.7526 h -2.9718 v -5.1054 h -1.8542 v 5.1054 h -3.5306 v 1.7526 h 3.5306 v 5.461 c -1.4478,0.4064 -2.7686,0.762 -3.8354,1.0414 l 0.5334,1.8288 c 0.9906,-0.3048 2.1082,-0.635 3.302,-0.9906 v 6.7564 c 0,0.381 -0.127,0.4826 -0.4826,0.4826 -0.3048,0.0254 -1.3716,0.0254 -2.5146,0 0.254,0.4826 0.508,1.2446 0.5842,1.7272 1.7018,0.0254 2.7178,-0.0254 3.3528,-0.3302 0.6604,-0.3048 0.9144,-0.8128 0.9144,-1.8796 v -7.3152 l 3.3528,-1.0414 z m 11.5316,2.8702 v 2.5146 h -8.2296 v -2.5146 z m -8.2296,6.731 v -2.667 h 8.2296 v 2.667 z m -1.8034,2.7178 h 1.8034 v -1.1684 h 8.2296 v 1.0668 h 1.8542 v -10.9728 h -11.8872 z m 3.7846,-14.9098 c -1.6256,0 -1.9304,-0.1524 -1.9304,-1.016 v -1.8288 c 3.302,-0.635 7.0104,-1.4986 9.5758,-2.5146 l -1.4478,-1.397 c -1.905,0.8382 -5.1308,1.7272 -8.128,2.3622 v -3.7846 h -1.8542 v 7.1628 c 0,2.1844 0.7874,2.7432 3.683,2.7432 h 5.9182 c 2.5146,0 3.0988,-0.8636 3.3782,-4.1656 -0.508,-0.127 -1.2954,-0.4064 -1.7272,-0.7366 -0.1524,2.7432 -0.381,3.175 -1.778,3.175 z m -31.74995,-5.0038 v 4.8006 h -4.7498 v -4.8006 z m -4.7498,11.5824 v -5.0546 h 4.7498 v 5.0546 z m 6.5024,1.7526 v -15.0368 h -8.2804 v 17.3736 h 1.778 v -2.3368 z m 4.0132,-3.2258 c 0.127,-1.143 0.1524,-2.2606 0.1524,-3.302 v -1.143 h 7.0866 v 4.445 z m 7.239,-10.5156 v 4.3434 h -7.0866 v -4.3434 z m 1.8288,-1.778 h -10.7442 v 8.9916 c 0,3.937 -0.4318,8.7122 -4.699,11.9888 0.381,0.254 1.0922,0.889 1.397,1.2954 2.8702,-2.2098 4.1656,-5.2324 4.7244,-8.255 h 7.493 v 5.588 c 0,0.4572 -0.1778,0.6096 -0.6604,0.635 -0.4064,0 -2.0066,0.0254 -3.6576,-0.0254 0.3048,0.4826 0.6096,1.3208 0.7112,1.8288 2.159,0 3.556,-0.0508 4.3688,-0.3302 0.8128,-0.3302 1.0668,-0.9144 1.0668,-2.1082 z m -41.85915,2.7178 c 0.5842,1.0414 1.1938,2.2606 1.4478,3.0988 l 1.651,-0.6858 c -0.2286,-0.635 -0.6858,-1.5748 -1.1684,-2.413 h 3.5814 v -1.6002 h -6.1722 c 0.2794,-0.6096 0.5334,-1.1938 0.762,-1.8288 l -1.8034,-0.4318 c -0.8128,2.3876 -2.2606,4.6736 -3.9878,6.1722 0.4572,0.254 1.1938,0.762 1.5748,1.0414 0.889,-0.889 1.8034,-2.0574 2.5908,-3.3528 z m -4.2164,19.3548 h 1.8288 v -13.3858 h -1.8288 z m 1.143,-15.5702 c 1.0668,0.9398 2.286,2.286 2.8194,3.2004 l 1.4478,-1.0414 c -0.5588,-0.889 -1.8288,-2.1844 -2.8956,-3.0988 z m 5.8674,11.0744 v -2.2606 h 5.9182 v 2.2606 z m 5.9182,-5.7658 v 2.1082 h -5.9182 v -2.1082 z m 1.7018,-1.4732 h -9.271 v 8.7122 h 9.271 z m 5.207,-3.81 h -13.6906 v 1.7272 h 11.8364 v 11.5824 c 0,0.3556 -0.1016,0.4572 -0.508,0.4826 -0.3556,0.0254 -1.7272,0.0254 -3.1496,-0.0254 0.2794,0.4826 0.5334,1.1684 0.6096,1.6764 1.9304,0 3.175,-0.0254 3.9116,-0.3048 0.7366,-0.2794 0.9906,-0.762 0.9906,-1.8288 z m -6.4008,-5.3848 c 0.2794,-0.6096 0.4826,-1.2192 0.6604,-1.8542 l -1.778,-0.4064 c -0.635,2.1844 -1.8034,4.2672 -3.2258,5.6388 0.4572,0.2286 1.2192,0.762 1.5494,1.0668 0.7112,-0.7874 1.4224,-1.7526 2.0066,-2.8448 h 1.9558 c 0.7366,1.0668 1.4986,2.3622 1.8034,3.2258 l 1.6256,-0.7366 c -0.2794,-0.6858 -0.8128,-1.6256 -1.4224,-2.4892 h 4.1148 v -1.6002 z M 303.64576,73.605665 q 0.6604,0 1.016,0.6096 0.4064,0.6096 0.4064,1.6764 0,1.8288 -0.8636,3.1496 -2.9972,4.6228 -8.5344,4.6228 -2.3876,0 -4.2672,-0.9144 -1.8288,-0.9652 -2.9972,-2.7432 -2.9464,3.6068 -6.858,3.6068 -2.794,0 -4.4196,-1.6256 -1.6256,-1.6256 -1.6256,-4.318 0,-2.54 1.1684,-4.1148 1.1684,-1.5748 3.302,-1.5748 1.8288,0 1.8288,1.3716 0,0.4064 -0.1016,1.4224 l -0.1524,1.9304 q 0,1.524 1.3208,1.524 0.9652,0 1.8288,-1.1176 0.9144,-1.1684 1.4732,-3.1496 0.6096,-1.9812 0.6096,-4.3688 0,-1.8288 -0.4572,-3.048 -0.4572,-1.27 -1.1176,-1.27 -0.5588,0 -0.8128,0.3048 -0.254,0.254 -0.508,0.9144 -0.3048,0.8128 -0.8128,1.3208 -0.508,0.4572 -1.778,0.4572 -1.1176,0 -1.778,-0.762 -0.6604,-0.8128 -0.6604,-2.4384 0,-2.5908 1.5748,-4.064 1.5748,-1.4732 4.064,-1.4732 2.1336,0 3.8608,1.0668 1.7272,1.016 2.6416,2.9972 1.524,-2.032 3.4036,-3.048 1.9304,-1.016 3.7592,-1.016 1.9812,0 2.9972,0.9144 1.0668,0.9144 1.0668,2.9464 0,2.286 -0.8636,3.6068 -0.8636,1.27 -2.0828,1.27 -1.1176,0 -1.524,-0.4572 -0.4064,-0.4572 -0.6096,-1.3208 -0.1016,-0.6096 -0.3048,-0.9144 -0.2032,-0.3048 -0.7112,-0.3048 -0.6096,0 -1.3208,1.1684 -0.6604,1.1176 -1.1684,2.9972 -0.4572,1.8796 -0.4572,3.9116 0,2.286 1.016,3.6576 1.0668,1.3716 2.54,1.3716 2.794,0 5.5372,-4.0132 0.508,-0.762 1.3716,-0.762 z m -44.85639,10.0584 q -2.286,0 -3.7592,-2.0828 -1.4224,-2.1336 -1.4224,-5.2832 0,-3.81 0.508,-6.9596 0.508,-3.2004 1.6764,-6.7564 0.508,-1.524 1.4224,-2.1844 0.9144,-0.6604 2.8956,-0.6604 1.1176,0 1.524,0.3556 0.4572,0.3556 0.4572,1.0668 0,0.4064 -0.5588,2.7432 -0.508,1.8796 -0.8128,3.4036 -1.016,5.334 -1.016,7.112 0,1.0668 0.254,1.524 0.254,0.4064 0.8128,0.4064 0.762,0 1.8796,-1.524 1.1684,-1.524 2.4384,-4.6228 1.3208,-3.0988 2.54,-7.62 0.4064,-1.524 1.2192,-2.1844 0.8636,-0.6604 2.54,-0.6604 1.1684,0 1.6256,0.3048 0.4572,0.254 0.4572,1.016 0,1.27 -1.27,6.9596 -1.4224,6.5024 -1.4224,8.0264 0,0.9652 0.4064,1.524 0.4064,0.508 1.0668,0.508 1.016,0 2.3876,-1.2192 1.4224,-1.27 3.7592,-4.064 0.6096,-0.7112 1.3716,-0.7112 0.6604,0 1.016,0.6096 0.4064,0.6096 0.4064,1.6764 0,2.032 -0.9652,3.1496 -2.1844,2.6924 -4.7244,4.4196 -2.4892,1.7272 -5.6896,1.7272 -2.4384,0 -3.6068,-1.8796 -1.1176,-1.8796 -1.1176,-5.2832 -0.8636,3.4544 -2.5908,5.334 -1.7272,1.8288 -3.7084,1.8288 z m -26.77152,0 q -1.9304,0 -2.7432,-2.032 -0.762,-2.032 -0.762,-6.5024 0,-6.604 1.8796,-12.5476 0.4572,-1.4732 1.4732,-2.1336 1.0668,-0.7112 2.9464,-0.7112 1.016,0 1.4224,0.254 0.4064,0.254 0.4064,0.9652 0,0.8128 -0.762,3.6576 -0.508,2.032 -0.8128,3.556 -0.3048,1.524 -0.508,3.7592 1.6764,-4.3688 3.7592,-7.112 2.0828,-2.7432 4.064,-3.9116 2.032,-1.1684 3.7084,-1.1684 3.302,0 3.302,3.302 0,1.9812 -1.1176,7.1628 -0.9652,4.4196 -0.9652,5.842 0,2.032 1.4732,2.032 1.016,0 2.3876,-1.2192 1.4224,-1.27 3.7592,-4.064 0.6096,-0.7112 1.3716,-0.7112 0.6604,0 1.016,0.6096 0.4064,0.6096 0.4064,1.6764 0,2.032 -0.9652,3.1496 -2.1844,2.6924 -4.7244,4.4196 -2.4892,1.7272 -5.6896,1.7272 -2.5908,0 -3.9116,-1.4732 -1.3208,-1.524 -1.3208,-4.3688 0,-1.4224 0.7112,-5.08 0.6604,-3.2004 0.6604,-4.4196 0,-0.8128 -0.5588,-0.8128 -0.6604,0 -1.8796,1.7272 -1.1684,1.6764 -2.4384,4.4704 -1.2192,2.794 -1.9812,5.8928 -0.5588,2.3876 -1.3208,3.2512 -0.7112,0.8128 -2.286,0.8128 z m -9.44872,-27.2796 q -2.1336,0 -3.2004,-0.9652 -1.0668,-1.016 -1.0668,-2.794 0,-1.778 1.3716,-2.9464 1.4224,-1.2192 3.5052,-1.2192 1.8796,0 3.048,0.9144 1.1684,0.9144 1.1684,2.5908 0,2.032 -1.3208,3.2512 -1.3208,1.1684 -3.5052,1.1684 z m -0.4064,27.2796 q -3.302,0 -4.826,-2.3368 -1.4732,-2.3368 -1.4732,-6.1976 0,-2.286 0.5588,-5.842 0.6096,-3.6068 1.524,-6.7056 0.4572,-1.6256 1.2192,-2.2352 0.762,-0.6096 2.4384,-0.6096 2.5908,0 2.5908,1.7272 0,1.27 -0.9652,5.8928 -1.2192,5.588 -1.2192,7.5692 0,1.524 0.4064,2.3368 0.4064,0.8128 1.3716,0.8128 0.9144,0 2.286,-1.27 1.3716,-1.27 3.6576,-4.0132 0.6096,-0.7112 1.3716,-0.7112 0.6604,0 1.016,0.6096 0.4064,0.6096 0.4064,1.6764 0,2.032 -0.9652,3.1496 -5.0292,6.1468 -9.398,6.1468 z m -3.55591,-11.5824 q 0.6604,0 1.016,0.6096 0.4064,0.6096 0.4064,1.6764 0,2.032 -0.9652,3.1496 -2.1844,2.6924 -4.7752,4.4196 -2.54,1.7272 -5.7912,1.7272 -4.4704,0 -6.6548,-4.064 -2.1336,-4.064 -2.1336,-10.5156 0,-6.1976 1.5748,-14.1224 1.6256,-7.9248 4.7244,-13.6144 3.1496,-5.6896 7.4676,-5.6896 2.4384,0 3.81,2.286 1.4224,2.2352 1.4224,6.4516 0,6.0452 -3.3528,14.0208 -3.3528,7.9756 -9.0932,15.7988 0.3556,2.0828 1.1684,2.9972 0.8128,0.8636 2.1336,0.8636 2.0828,0 3.6576,-1.1684 1.5748,-1.2192 4.0132,-4.1148 0.6096,-0.7112 1.3716,-0.7112 z m -6.2484,-31.3944 q -1.1684,0 -2.6416,4.2164 -1.4732,4.2164 -2.5908,10.4648 -1.1176,6.2484 -1.2192,11.9888 3.6068,-5.9436 5.7404,-11.8872 2.1336,-5.9944 2.1336,-10.922 0,-3.8608 -1.4224,-3.8608 z m -10.31235,31.3944 q 0.6604,0 1.016,0.6096 0.4064,0.6096 0.4064,1.6764 0,2.032 -0.9652,3.1496 -2.3368,2.6924 -4.826,4.4196 -2.4384,1.7272 -5.588,1.7272 -2.5908,0 -3.9116,-1.4732 -1.3208,-1.524 -1.3208,-4.3688 0,-1.4224 0.7112,-5.08 0.6604,-3.2004 0.6604,-4.4196 0,-0.8128 -0.5588,-0.8128 -0.6604,0 -1.8796,1.7272 -1.2192,1.6764 -2.4384,4.4704 -1.2192,2.794 -1.9812,5.8928 -0.9652,4.064 -4.7752,4.064 -1.524,0 -2.032,-1.0668 -0.4572,-1.1176 -0.4572,-3.9624 0,-1.6256 0.0508,-2.5908 l 0.0508,-4.064 q 0,-7.8232 1.5748,-16.3068 1.6256,-8.4836 4.7244,-14.224 3.1496,-5.7912 7.5184,-5.7912 2.3368,0 3.7592,2.032 1.4732,1.9812 1.4732,5.1816 0,5.1308 -2.9972,10.668 -2.9972,5.4864 -9.7536,12.8524 -0.1524,2.6416 -0.1524,5.4356 1.6764,-4.318 3.7084,-7.0104 2.0828,-2.7432 4.064,-3.9116 2.032,-1.1684 3.7084,-1.1684 3.302,0 3.302,3.302 0,1.9812 -1.1176,7.1628 -0.9652,4.4196 -0.9652,5.842 0,2.032 1.4732,2.032 1.016,0 2.3876,-1.2192 1.4224,-1.27 3.7592,-4.064 0.6096,-0.7112 1.3716,-0.7112 z m -15.0876,-31.3944 q -0.9144,0 -2.032,2.6416 -1.1176,2.5908 -2.1844,7.0612 -1.016,4.4196 -1.6764,9.652 3.1496,-3.7084 5.1816,-8.0772 2.0828,-4.3688 2.0828,-7.9248 0,-1.6256 -0.3556,-2.4892 -0.3556,-0.8636 -1.016,-0.8636 z m -22.0979,42.9768 q -4.9784,0 -7.7724,-2.794 -2.7432,-2.8448 -2.7432,-7.4676 0,-4.1148 1.6256,-7.2136 1.6256,-3.0988 4.2164,-4.7752 2.5908,-1.6764 5.4356,-1.6764 2.794,0 4.318,1.6764 1.5748,1.6256 1.5748,4.2164 0,2.1336 -0.9652,3.6068 -0.9144,1.4732 -2.4384,1.4732 -0.9652,0 -1.5748,-0.4572 -0.5588,-0.4572 -0.5588,-1.27 0,-0.3556 0.1016,-0.8128 0.1016,-0.4572 0.1524,-0.6604 0.254,-0.762 0.254,-1.4224 0,-0.6604 -0.3556,-1.016 -0.3048,-0.3556 -0.9144,-0.3556 -1.1684,0 -2.1844,1.0668 -1.016,1.016 -1.6256,2.794 -0.6096,1.778 -0.6096,3.9116 0,5.8928 5.1308,5.8928 2.0828,0 4.4704,-1.3716 2.4384,-1.4224 4.7752,-4.2164 0.6096,-0.7112 1.3716,-0.7112 0.6604,0 1.016,0.6096 0.4064,0.6096 0.4064,1.6764 0,1.9304 -0.9652,3.1496 -2.3876,2.9464 -5.7404,4.572 -3.302,1.5748 -6.4008,1.5748 z m -29.21,0 q -1.9304,0 -2.7432,-2.032 -0.762,-2.032 -0.762,-6.5024 0,-6.604 1.8796,-12.5476 0.4572,-1.4732 1.4732,-2.1336 1.0668,-0.7112 2.9464,-0.7112 1.016,0 1.4224,0.254 0.4064,0.254 0.4064,0.9652 0,0.8128 -0.762,3.6576 -0.508,2.032 -0.8128,3.556 -0.3048,1.524 -0.508,3.7592 1.6764,-4.3688 3.7592,-7.112 2.0828,-2.7432 4.064,-3.9116 2.032,-1.1684 3.7084,-1.1684 3.302,0 3.302,3.302 0,0.6604 -0.4572,3.2004 -0.4064,2.032 -0.4064,2.54 0,1.778 1.27,1.778 1.4224,0 3.6576,-2.2352 0.6604,-0.6604 1.3716,-0.6604 0.6604,0 1.016,0.6096 0.4064,0.5588 0.4064,1.524 0,1.8796 -1.016,2.9464 -1.4224,1.4732 -3.3528,2.54 -1.8796,1.016 -4.0132,1.016 -2.6924,0 -4.1148,-1.3716 -1.3716,-1.3716 -1.3716,-3.7084 0,-0.762 0.1524,-1.524 0.1016,-1.016 0.1016,-1.3716 0,-0.8128 -0.5588,-0.8128 -0.762,0 -2.032,1.7272 -1.2192,1.6764 -2.4384,4.4704 -1.2192,2.794 -1.9812,5.8928 -0.5588,2.3876 -1.3208,3.2512 -0.7112,0.8128 -2.286,0.8128 z m -21.23436,0 q -3.1496,0 -5.0292,-2.286 -1.8796,-2.286 -1.8796,-5.9944 0,-4.064 1.8796,-7.6708 1.8796,-3.6576 4.9784,-5.842 3.1496,-2.2352 6.6548,-2.2352 1.1176,0 1.4732,0.4572 0.4064,0.4064 0.6604,1.524 1.0668,-0.2032 2.2352,-0.2032 2.4892,0 2.4892,1.778 0,1.0668 -0.762,5.08 -1.1684,5.842 -1.1684,8.128 0,0.762 0.3556,1.2192 0.4064,0.4572 1.016,0.4572 0.9652,0 2.3368,-1.2192 1.3716,-1.27 3.7084,-4.064 0.6096,-0.7112 1.3716,-0.7112 0.6604,0 1.016,0.6096 0.4064,0.6096 0.4064,1.6764 0,2.032 -0.9652,3.1496 -2.0828,2.5908 -4.4196,4.3688 -2.3368,1.778 -4.5212,1.778 -1.6764,0 -3.0988,-1.1176 -1.3716,-1.1684 -2.0828,-3.1496 -2.6416,4.2672 -6.6548,4.2672 z m 1.8288,-5.1308 q 1.1176,0 2.1336,-1.3208 1.016,-1.3208 1.4732,-3.5052 l 1.8796,-9.3472 q -2.1336,0.0508 -3.9624,1.6256 -1.778,1.524 -2.8448,4.064 -1.0668,2.54 -1.0668,5.3848 0,1.5748 0.6096,2.3368 0.6604,0.762 1.778,0.762 z M 62.686059,35.454168 c -4.239494,10.394121 -6.796551,17.193094 -11.516679,27.278241 2.894025,3.06768 6.446302,6.640142 12.2152,10.674884 -6.202132,-2.552136 -10.432745,-5.114438 -13.594343,-7.773309 -6.040868,12.605195 -15.50514,30.560725 -34.71125,65.070186 15.095348,-8.71482 26.796995,-14.08758 37.702364,-16.13768 -0.468282,-2.01408 -0.734531,-4.1927 -0.716443,-6.46584 l 0.01875,-0.48358 c 0.239535,-9.671197 5.270457,-17.108347 11.230107,-16.603397 5.959625,0.504967 10.592003,8.759105 10.352477,18.430287 -0.04509,1.81983 -0.250338,3.57047 -0.608978,5.19418 10.78699,2.11011 22.363508,7.46912 37.254606,16.06603 -2.93626,-5.4058 -5.55707,-10.27876 -8.05988,-14.91975 -3.942334,-3.05557 -8.05438,-7.0324 -16.44218,-11.33758 5.765293,1.49806 9.893161,3.22644 13.110745,5.15831 C 73.473732,62.227704 71.413093,55.932224 62.686828,35.454168 Z" />
        </g>
      </g>
    </g>
  </g>
</svg>
