<?xml version="1.0" encoding="UTF-8" standalone="no"?>
<svg
   xmlns:dc="http://purl.org/dc/elements/1.1/"
   xmlns:cc="http://creativecommons.org/ns#"
   xmlns:rdf="http://www.w3.org/1999/02/22-rdf-syntax-ns#"
   xmlns:svg="http://www.w3.org/2000/svg"
   xmlns="http://www.w3.org/2000/svg"
   xmlns:xlink="http://www.w3.org/1999/xlink"
   xmlns:sodipodi="http://sodipodi.sourceforge.net/DTD/sodipodi-0.dtd"
   xmlns:inkscape="http://www.inkscape.org/namespaces/inkscape"
   version="1.0"
   width="600"
   height="126"
   id="svg2424"
   sodipodi:docname="arch.svg"
   inkscape:version="1.0.2 (e86c870879, 2021-01-15, custom)">
  <metadata
     id="metadata114">
    <rdf:RDF>
      <cc:Work
         rdf:about="">
        <dc:format>image/svg+xml</dc:format>
        <dc:type
           rdf:resource="http://purl.org/dc/dcmitype/StillImage" />
        <dc:title></dc:title>
      </cc:Work>
    </rdf:RDF>
  </metadata>
  <sodipodi:namedview
     pagecolor="#ffffff"
     bordercolor="#666666"
     borderopacity="1"
     objecttolerance="10"
     gridtolerance="10"
     guidetolerance="10"
     inkscape:pageopacity="0"
     inkscape:pageshadow="2"
     inkscape:window-width="2240"
     inkscape:window-height="1309"
     id="namedview112"
     showgrid="false"
     inkscape:zoom="1.4248202"
     inkscape:cx="156.49011"
     inkscape:cy="59.551322"
     inkscape:window-x="0"
     inkscape:window-y="0"
     inkscape:window-maximized="1"
     inkscape:current-layer="g2424"
     inkscape:document-rotation="0" />
  <defs
     id="defs2426">
    <linearGradient
       inkscape:collect="always"
       id="linearGradient889">
      <stop
         style="stop-color:#ff3cac;stop-opacity:1"
         offset="0"
         id="stop885" />
      <stop
         style="stop-color:#784ba0;stop-opacity:1"
         offset="0.5"
         id="stop893" />
      <stop
         style="stop-color:#2b86c5;stop-opacity:1"
         offset="1"
         id="stop887" />
    </linearGradient>
    <linearGradient
       x1="112.49854"
       y1="6.1372099"
       x2="112.49853"
       y2="129.3468"
       id="path1082_2_"
       gradientUnits="userSpaceOnUse"
       gradientTransform="translate(287,-83)">
      <stop
         id="stop193"
         style="stop-color:#ffffff;stop-opacity:0"
         offset="0" />
      <stop
         id="stop195"
         style="stop-color:#ffffff;stop-opacity:0.27450982"
         offset="1" />
      <midPointStop
         offset="0"
         style="stop-color:#FFFFFF"
         id="midPointStop197" />
      <midPointStop
         offset="0.5"
         style="stop-color:#FFFFFF"
         id="midPointStop199" />
      <midPointStop
         offset="1"
         style="stop-color:#000000"
         id="midPointStop201" />
    </linearGradient>
    <linearGradient
       x1="541.33502"
       y1="104.50665"
       x2="606.91248"
       y2="303.14029"
       id="linearGradient2544"
       xlink:href="#path1082_2_"
       gradientUnits="userSpaceOnUse"
       gradientTransform="matrix(-0.3937741,0,0,0.393752,357.51969,122.00151)" />
    <linearGradient
       id="linearGradient3388">
      <stop
         id="stop3390"
         style="stop-color:#000000;stop-opacity:0"
         offset="0" />
      <stop
         id="stop3392"
         style="stop-color:#000000;stop-opacity:0.37113401"
         offset="1" />
    </linearGradient>
    <linearGradient
       x1="490.72305"
       y1="237.72447"
       x2="490.72305"
       y2="183.9644"
       id="linearGradient4416"
       xlink:href="#linearGradient3388"
       gradientUnits="userSpaceOnUse"
       gradientTransform="matrix(0.749107,0,0,0.749107,-35.459862,91.44108)" />
    <linearGradient
       inkscape:collect="always"
       xlink:href="#linearGradient889"
       id="linearGradient891"
       x1="634.22734"
       y1="140.34607"
       x2="436.61933"
       y2="337.95408"
       gradientUnits="userSpaceOnUse" />
  </defs>
  <g
     transform="matrix(0.7,0,0,0.7,-37.866513,-100.53407)"
     id="layer1">
    <g
       transform="matrix(0.8746356,0,0,0.8746356,14.730518,23.408954)"
       id="g2424">
      <g
         id="g883"
         style="fill-opacity:1;fill:url(#linearGradient891)">
        <g
           transform="matrix(1.0033516,0,0,1.0033516,-35.47395,-116.45699)"
           id="g2809"
           style="fill:url(#linearGradient891);fill-opacity:1" />
        <g
           transform="matrix(1.4854426,0,0.02102071,1.4854426,24.809906,-769.96118)"
           id="g5326"
           style="fill:url(#linearGradient891);fill-opacity:1;stroke:none" />
        <g
           id="text2634"
           style="font-style:normal;font-weight:normal;font-size:8.44138241px;font-family:'DejaVu Sans Mono';fill:url(#linearGradient891);fill-opacity:1;stroke:none"
           transform="matrix(3.8808,0,0,3.8808,-1673.0935,-734.12067)">
          <path
             id="path3662"
             style="fill:url(#linearGradient891);fill-opacity:1"
             d="m 689.0982,263.83624 v -6.04251 h 1.20355 l 1.43026,4.2784 c 0.13189,0.39843 0.22806,0.69658 0.28852,0.89442 0.0687,-0.21983 0.17586,-0.5427 0.3215,-0.96862 l 1.44674,-4.2042 h 1.07578 v 6.04251 h -0.77077 v -5.05741 l -1.75587,5.05741 h -0.72131 l -1.74763,-5.14396 v 5.14396 h -0.77077 m -3.63128,0 v -5.32944 h -1.99082 v -0.71307 h 4.7895 v 0.71307 h -1.99906 v 5.32944 h -0.79962 M 468.76164,225.33157 c -2.26638,5.55656 -3.63335,9.1912 -6.15667,14.58259 1.54711,1.63994 3.44611,3.54973 6.53009,5.70665 -3.31558,-1.36434 -5.57721,-2.73411 -7.26736,-4.15551 -3.22937,6.73857 -8.28885,16.33736 -18.55619,34.78567 8.06978,-4.65883 14.32533,-7.53104 20.1552,-8.627 -0.25034,-1.0767 -0.39267,-2.24136 -0.383,-3.45655 l 0.01,-0.25852 c 0.12805,-5.17009 2.81752,-9.14589 6.00347,-8.87595 3.18594,0.26995 5.66235,4.6825 5.5343,9.85259 -0.0241,0.97285 -0.13382,1.90872 -0.32555,2.77673 5.76658,1.12804 11.95524,3.9929 19.91583,8.5887 -1.56968,-2.88988 -2.97074,-5.4949 -4.30871,-7.97591 -2.10752,-1.63347 -4.30577,-3.75943 -8.78978,-6.06092 3.08205,0.80084 5.28876,1.72481 7.00884,2.75757 -13.60352,-25.32736 -14.70511,-28.69284 -19.37006,-39.64014 z m 193.33217,16.25532 -2.05458,1.60768 7.87738,10.30918 -8.40197,11.91026 2.17978,1.61758 7.8983,-11.06071 8.1516,11.32286 2.01635,-1.60802 -8.73603,-12.10641 6.9693,-9.79022 -2.14308,-1.81213 -6.34864,9.05924 z m -5.74264,24.84742 -2.93027,0.59783 -0.0138,-5.23319 c -5.1e-4,-0.22484 -1.60987,5.84624 -9.3678,5.71122 -7.53339,-0.0419 -8.76581,-5.87405 -8.72502,-7.18159 l -0.0929,-18.40291 3.11324,-0.6286 0.0481,18.17756 c 0.001,0.49638 0.59584,5.09072 5.91944,5.10711 5.32264,0.0155 9.05157,-3.20514 9.07798,-8.05501 l -0.038,-14.34191 2.89773,-0.73949 z m -46.69807,-24.64097 2.93025,-0.59789 0.0139,5.23327 c 5e-4,0.22475 1.60887,-5.84625 9.36779,-5.71125 7.53339,0.0419 8.76582,5.87408 8.72503,7.18162 l 0.0929,18.40279 -2.5683,0.55743 -0.0149,-18.17723 c 0.0298,-0.53083 -1.17395,-5.01976 -6.49757,-5.03627 -5.32263,-0.0155 -9.01061,3.86613 -9.00405,6.34604 l 0.0424,16.01297 -2.97606,0.77752 z m -7.39629,0.45604 2.56774,-1.14321 0.022,25.0327 -2.47989,0.51258 z m -0.61026,-9.02686 2.07046,-1.69005 1.71991,1.91366 -2.07132,1.73478 z m -7.35592,-1.39263 2.92992,-0.73329 0.13863,34.91139 -2.97678,0.50689 z m -21.8875,-0.57809 -6.49588,1.52702 0.0485,34.62853 6.39893,-1.15536 0.0727,-16.29625 c 0.0137,-1.70878 2.472,-4.33296 6.57668,-4.2498 3.9246,0.0408 4.80174,2.61585 4.79111,2.94092 l 0.11312,18.86553 6.31005,-1.11497 0.0242,-20.00472 c 0.0416,-1.92495 -4.21639,-5.99031 -11.06077,-6.01919 -3.25269,0.005 -5.05402,0.74156 -5.97071,1.28463 -1.56846,1.21144 -3.361,2.37224 -5.12237,3.8539 1.62832,-2.09187 2.99534,-3.5382 4.33058,-4.61337 l -0.0162,-9.64687 z m -8.67247,12.79445 c -0.0664,-0.0312 -3.58841,-4.11966 -10.66912,-4.15191 -6.63225,-0.11023 -14.07137,2.46106 -14.19044,13.58196 0.0581,9.7777 7.14617,13.59884 14.22796,13.67335 7.57863,0.0787 10.59417,-4.73895 10.77505,-4.85833 -0.90428,-0.78393 -4.29127,-4.14007 -4.29127,-4.14007 0,0 -2.11548,3.01228 -6.22002,3.05058 -4.1055,0.0391 -7.67417,-3.17316 -7.72474,-7.6552 -0.0526,-4.48208 3.28059,-6.91038 7.75556,-7.10652 3.87417,-7.8e-4 6.10928,2.50097 6.10928,2.50097 z m -38.72133,-3.4901 -0.0401,26.58513 6.88036,-1.32561 0.0116,-15.07343 c 0.002,-2.24438 3.20736,-4.86694 7.22955,-4.82514 0.85371,-1.54456 2.4584,-5.49201 2.84936,-6.38992 -8.98603,-0.0215 -9.10043,2.58282 -10.66332,3.86396 -0.0163,-2.44396 -0.005,-3.91107 -0.005,-3.91107 l -6.26195,1.07608 z m -15.13308,-1.48344 c -3.74148,-0.006 -6.84652,0.76107 -8.04714,1.1796 l -1.23615,6.67363 c -0.003,0.0246 6.15213,-1.64137 8.86316,-1.54317 4.4887,0.16128 4.90183,1.71553 4.82343,3.8135 0.0765,0.12271 -1.1581,-1.89562 -5.04158,-1.96331 -4.89928,-0.0845 -11.81354,1.73468 -11.80408,9.12978 -0.13208,8.31838 6.21371,10.7654 10.53561,10.81031 3.88543,-0.0707 5.70802,-1.47146 6.70594,-2.22185 1.31113,-1.37089 2.81115,-2.74946 4.24171,-4.4033 -1.35364,2.45946 -2.52718,4.15989 -3.74886,5.46171 v 1.0988 l 5.90608,-0.99377 0.0404,-16.05387 c -0.0598,-2.27217 1.30338,-10.96693 -11.23851,-10.98806 z m -0.84835,13.97746 c 2.44811,0.0336 5.25562,1.24024 5.25973,4.14475 0.0127,2.64185 -3.30936,4.06218 -5.46979,4.03973 -2.16135,-0.0224 -5.02889,-1.69858 -5.04158,-4.27403 0.0414,-2.30218 2.70423,-3.96971 5.25164,-3.91045 z" />
        </g>
      </g>
    </g>
  </g>
</svg>
