<?xml version="1.0" encoding="utf-8"?>
<!-- Generator: Adobe Illustrator 24.3.0, SVG Export Plug-In . SVG Version: 6.00 Build 0)  -->
<svg version="1.1"
	 id="svg855" inkscape:version="1.0.2 (e86c870879, 2021-01-15, custom)" sodipodi:docname="favicon.svg" xmlns:cc="http://creativecommons.org/ns#" xmlns:dc="http://purl.org/dc/elements/1.1/" xmlns:inkscape="http://www.inkscape.org/namespaces/inkscape" xmlns:rdf="http://www.w3.org/1999/02/22-rdf-syntax-ns#" xmlns:sodipodi="http://sodipodi.sourceforge.net/DTD/sodipodi-0.dtd" xmlns:svg="http://www.w3.org/2000/svg"
	 xmlns="http://www.w3.org/2000/svg" xmlns:xlink="http://www.w3.org/1999/xlink" x="0px" y="0px" viewBox="0 0 512 512"
	 style="enable-background:new 0 0 512 512;" xml:space="preserve">
<style type="text/css">
	.st0{fill:url(#path1489_1_);}
</style>
<sodipodi:namedview  bordercolor="#666666" borderopacity="1.0" id="base" inkscape:current-layer="layer1" inkscape:cx="-66.944138" inkscape:cy="218.34165" inkscape:document-rotation="0" inkscape:document-units="mm" inkscape:pageopacity="0.0" inkscape:pageshadow="2" inkscape:window-height="1309" inkscape:window-maximized="1" inkscape:window-width="2240" inkscape:window-x="0" inkscape:window-y="0" inkscape:zoom="0.70710678" pagecolor="#ffffff" showgrid="false" units="px">
	</sodipodi:namedview>
<g id="layer1" inkscape:groupmode="layer" inkscape:label="鍥惧眰 1">
	<linearGradient id="path1489_1_" gradientUnits="userSpaceOnUse" x1="256" y1="497.9333" x2="256" y2="14.0668">
		<stop  offset="0" style="stop-color:#FFDEE9"/>
		<stop  offset="1" style="stop-color:#B5FFFC"/>
	</linearGradient>
	<path id="path1489" class="st0" d="M256,14.1c-21.5,52.8-34.5,87.3-58.5,138.6c14.7,15.6,32.7,33.7,62.1,54.2
		c-31.5-13-53-26-69.1-39.5c-30.7,64-78.8,155.2-176.3,330.6c76.7-44.3,136.1-71.6,191.5-82c-2.4-10.2-3.7-21.3-3.6-32.8l0.1-2.5
		c1.2-49.1,26.8-86.9,57-84.3c30.3,2.6,53.8,44.5,52.6,93.6c-0.2,9.2-1.3,18.1-3.1,26.4c54.8,10.7,113.6,37.9,189.3,81.6
		c-14.9-27.5-28.2-52.2-40.9-75.8c-20-15.5-40.9-35.7-83.5-57.6c29.3,7.6,50.3,16.4,66.6,26.2C310.8,150.1,300.3,118.1,256,14.1
		L256,14.1z"/>
</g>
</svg>
