<?xml version="1.0" encoding="UTF-8" standalone="no"?>
<svg
   xmlns:dc="http://purl.org/dc/elements/1.1/"
   xmlns:cc="http://creativecommons.org/ns#"
   xmlns:rdf="http://www.w3.org/1999/02/22-rdf-syntax-ns#"
   xmlns:svg="http://www.w3.org/2000/svg"
   xmlns="http://www.w3.org/2000/svg"
   xmlns:xlink="http://www.w3.org/1999/xlink"
   xmlns:sodipodi="http://sodipodi.sourceforge.net/DTD/sodipodi-0.dtd"
   xmlns:inkscape="http://www.inkscape.org/namespaces/inkscape"
   width="512"
   height="512"
   viewBox="0 0 135.46666 135.46667"
   version="1.1"
   id="svg855"
   inkscape:version="1.0.2 (e86c870879, 2021-01-15, custom)"
   sodipodi:docname="arch-logo.svg">
  <defs
     id="defs849">
    <linearGradient
       inkscape:collect="always"
       xlink:href="#linearGradient889"
       id="linearGradient1513"
       gradientUnits="userSpaceOnUse"
       gradientTransform="matrix(1.9953103,0,0,1.9953103,-867.60162,-432.6731)"
       x1="494.21658"
       y1="225.34592"
       x2="443.31152"
       y2="276.25098" />
    <linearGradient
       inkscape:collect="always"
       id="linearGradient889">
      <stop
         style="stop-color:#ff3cac;stop-opacity:1"
         offset="0"
         id="stop885" />
      <stop
         style="stop-color:#784ba0;stop-opacity:1"
         offset="0.50000006"
         id="stop893" />
      <stop
         style="stop-color:#2b86c5;stop-opacity:1"
         offset="1"
         id="stop887" />
    </linearGradient>
  </defs>
  <sodipodi:namedview
     id="base"
     pagecolor="#ffffff"
     bordercolor="#666666"
     borderopacity="1.0"
     inkscape:pageopacity="0.0"
     inkscape:pageshadow="2"
     inkscape:zoom="0.70710678"
     inkscape:cx="-66.944138"
     inkscape:cy="218.34165"
     inkscape:document-units="mm"
     inkscape:current-layer="layer1"
     inkscape:document-rotation="0"
     showgrid="false"
     units="px"
     inkscape:window-width="2240"
     inkscape:window-height="1309"
     inkscape:window-x="0"
     inkscape:window-y="0"
     inkscape:window-maximized="1" />
  <metadata
     id="metadata852">
    <rdf:RDF>
      <cc:Work
         rdf:about="">
        <dc:format>image/svg+xml</dc:format>
        <dc:type
           rdf:resource="http://purl.org/dc/dcmitype/StillImage" />
        <dc:title />
      </cc:Work>
    </rdf:RDF>
  </metadata>
  <g
     inkscape:label="图层 1"
     inkscape:groupmode="layer"
     id="layer1">
    <path
       style="font-style:normal;font-weight:normal;font-size:8.44138px;font-family:'DejaVu Sans Mono';fill:url(#linearGradient1513);fill-opacity:1;stroke:none;stroke-width:1.99532"
       d="m 67.723336,16.933335 c -4.522129,11.087061 -7.249658,18.339299 -12.284464,29.096791 3.086961,3.272188 6.876059,7.082811 13.029555,11.386539 -6.615611,-2.72228 -11.128267,-5.455398 -14.50064,-8.29153 -6.443596,13.445538 -16.538825,32.598103 -37.025352,69.408195 16.101713,-9.2958 28.583476,-15.02675 40.215875,-17.21353 -0.499503,-2.148348 -0.783501,-4.472208 -0.764206,-6.896888 l 0.02,-0.51583 c 0.255504,-10.31594 5.621823,-18.248892 11.978787,-17.71028 6.356936,0.538633 11.298141,9.343043 11.042647,19.65897 -0.0481,1.94115 -0.267026,3.8085 -0.649577,5.540458 11.506122,2.25078 23.854419,7.96707 39.738269,17.1371 -3.13202,-5.76619 -5.92755,-10.96401 -8.59721,-15.9144 -4.20516,-3.259288 -8.59135,-7.501228 -17.538348,-12.093422 6.14965,1.597924 10.552718,3.441534 13.984808,5.502204 C 79.230193,45.491772 77.032177,38.776595 67.724155,16.933335 Z"
       id="path1489" />
  </g>
</svg>
