<?xml version="1.0" encoding="UTF-8" standalone="no"?>
<svg
   xmlns:dc="http://purl.org/dc/elements/1.1/"
   xmlns:cc="http://creativecommons.org/ns#"
   xmlns:rdf="http://www.w3.org/1999/02/22-rdf-syntax-ns#"
   xmlns:svg="http://www.w3.org/2000/svg"
   xmlns="http://www.w3.org/2000/svg"
   xmlns:xlink="http://www.w3.org/1999/xlink"
   xmlns:sodipodi="http://sodipodi.sourceforge.net/DTD/sodipodi-0.dtd"
   xmlns:inkscape="http://www.inkscape.org/namespaces/inkscape"
   width="256"
   height="89.599998"
   viewBox="0 0 67.733331 23.706666"
   version="1.1"
   id="svg2132"
   inkscape:version="1.0.2 (e86c870879, 2021-01-15, custom)"
   sodipodi:docname="by-sa.svg">
  <defs
     id="defs2126">
    <linearGradient
       inkscape:collect="always"
       id="linearGradient2919">
      <stop
         style="stop-color:#ff3cac;stop-opacity:1"
         offset="0"
         id="stop2915" />
      <stop
         style="stop-color:#784ba0;stop-opacity:1"
         offset="0.5"
         id="stop2923" />
      <stop
         style="stop-color:#2b86c5;stop-opacity:1"
         offset="1"
         id="stop2917" />
    </linearGradient>
    <linearGradient
       inkscape:collect="always"
       xlink:href="#linearGradient2919"
       id="linearGradient2931"
       x1="45.719999"
       y1="-1.95964e-07"
       x2="22.013333"
       y2="23.706666"
       gradientUnits="userSpaceOnUse" />
    <linearGradient
       inkscape:collect="always"
       xlink:href="#linearGradient2919"
       id="linearGradient3163"
       x1="39.638229"
       y1="1.9112916"
       x2="21.672001"
       y2="19.87752"
       gradientUnits="userSpaceOnUse" />
  </defs>
  <sodipodi:namedview
     id="base"
     pagecolor="#ffffff"
     bordercolor="#666666"
     borderopacity="1.0"
     inkscape:pageopacity="0.0"
     inkscape:pageshadow="2"
     inkscape:zoom="3.959798"
     inkscape:cx="116.7034"
     inkscape:cy="59.447977"
     inkscape:document-units="mm"
     inkscape:current-layer="layer1"
     inkscape:document-rotation="0"
     showgrid="false"
     units="px"
     inkscape:window-width="2240"
     inkscape:window-height="1309"
     inkscape:window-x="0"
     inkscape:window-y="0"
     inkscape:window-maximized="1" />
  <metadata
     id="metadata2129">
    <rdf:RDF>
      <cc:Work
         rdf:about="">
        <dc:format>image/svg+xml</dc:format>
        <dc:type
           rdf:resource="http://purl.org/dc/dcmitype/StillImage" />
        <dc:title></dc:title>
      </cc:Work>
    </rdf:RDF>
  </metadata>
  <g
     inkscape:label="图层 1"
     inkscape:groupmode="layer"
     id="layer1">
    <path
       id="path5906_2_"
       cx="296.35416"
       ry="22.939548"
       cy="264.3577"
       type="arc"
       rx="22.939548"
       d="m 19.485877,11.049283 c 0.0029,4.249812 -3.441199,7.696917 -7.691488,7.699918 -4.2502737,0.0024 -7.6983181,-3.440813 -7.700781,-7.690596 0,-0.0033 0,-0.006 0,-0.0093 -0.00245,-4.2503515 3.4411843,-7.6974564 7.691473,-7.6999337 4.250827,-0.00274 7.698333,3.4408283 7.700796,7.6906117 0,0.0027 0,0.006 0,0.0093 z"
       style="fill:#ffffff;stroke-width:0.489624" />
    <path
       d="M 66.465207,-1.95964e-7 H 1.2681256 C 0.56887656,-1.95964e-7 -2.4136278e-7,0.56908772 -2.4136278e-7,1.2682585 V 23.420207 c 0,0.15802 0.12818463136278,0.286459 0.28621656136278,0.286459 H 67.446842 c 0.158037,0 0.286491,-0.128439 0.286491,-0.286459 V 1.2682641 C 67.733333,0.56908772 67.164456,-1.9596401e-7 66.465207,-1.95964e-7 Z M 1.2681256,0.57292408 H 66.465207 c 0.383449,0 0.695143,0.31192849 0.695143,0.69534002 0,0 0,8.9287489 0,15.3782229 H 20.561461 c -1.707999,3.087803 -4.998556,5.184497 -8.774999,5.184497 -3.7780863,0 -7.0678239,-2.094775 -8.7749984,-5.184497 H 0.5724441 c 0,-6.449468 0,-15.3782229 0,-15.3782229 -1.121e-5,-0.38341153 0.31223269,-0.69534002 0.6956815,-0.69534002 z"
       id="path294"
       style="stroke-width:0.560903;fill:url(#linearGradient2931);fill-opacity:1.0" />
    <path
       d="m 48.691156,21.297769 c 0.04493,0.08736 0.105175,0.15802 0.180222,0.212245 0.07505,0.05396 0.162694,0.09421 0.263488,0.120228 0.101338,0.02631 0.205969,0.03943 0.313882,0.03943 0.07285,0 0.151188,-0.006 0.235003,-0.01834 0.08326,-0.01206 0.161599,-0.0359 0.235003,-0.07066 0.07285,-0.03477 0.134209,-0.08298 0.182416,-0.144054 0.04931,-0.06107 0.0734,-0.138575 0.0734,-0.233059 0,-0.101058 -0.03231,-0.18294 -0.09696,-0.245931 -0.06409,-0.06299 -0.148995,-0.115023 -0.253626,-0.157195 -0.104081,-0.04162 -0.222949,-0.07833 -0.354965,-0.109819 -0.132565,-0.03152 -0.266774,-0.06627 -0.402621,-0.104888 -0.139684,-0.03477 -0.275536,-0.0775 -0.408102,-0.128171 -0.132016,-0.05037 -0.250889,-0.116117 -0.355514,-0.196361 -0.104626,-0.08024 -0.188985,-0.180477 -0.253627,-0.300974 -0.06409,-0.120498 -0.09641,-0.266195 -0.09641,-0.437087 0,-0.19225 0.04106,-0.358762 0.122704,-0.500073 0.08217,-0.141311 0.189534,-0.259072 0.3221,-0.353556 0.132016,-0.09421 0.28211,-0.164044 0.449734,-0.209508 0.167074,-0.04521 0.334698,-0.06792 0.501773,-0.06792 0.195558,0 0.382904,0.02193 0.562577,0.06573 0.179129,0.04352 0.339079,0.114474 0.478219,0.212245 0.139683,0.09777 0.250339,0.222649 0.332505,0.374645 0.08162,0.151996 0.122704,0.336304 0.122704,0.552655 H 50.04748 c -0.0071,-0.111737 -0.03068,-0.204303 -0.07012,-0.277424 -0.03999,-0.0734 -0.09313,-0.130907 -0.158856,-0.173079 -0.06628,-0.04162 -0.141877,-0.07148 -0.226786,-0.08873 -0.08545,-0.0175 -0.178029,-0.02631 -0.278823,-0.02631 -0.06574,0 -0.132016,0.0071 -0.197752,0.02081 -0.06628,0.01425 -0.125991,0.03859 -0.179673,0.0734 -0.05424,0.03505 -0.0986,0.0786 -0.133109,0.130907 -0.0345,0.05255 -0.05205,0.118855 -0.05205,0.199098 0,0.0734 0.01369,0.132826 0.04162,0.17801 0.02793,0.04549 0.08326,0.08736 0.164887,0.125702 0.08162,0.03836 0.195014,0.07696 0.339629,0.115298 0.144614,0.03836 0.333604,0.08736 0.567508,0.146517 0.06957,0.01397 0.16598,0.03943 0.289778,0.07613 0.123798,0.03668 0.246503,0.09503 0.368663,0.175272 0.122154,0.08051 0.22733,0.187869 0.316619,0.322063 0.08874,0.134469 0.13311,0.306455 0.13311,0.515957 0,0.171166 -0.03343,0.330005 -0.09969,0.476521 -0.06628,0.146792 -0.164887,0.273313 -0.295803,0.379576 -0.130922,0.106806 -0.293066,0.189512 -0.486436,0.248942 -0.193915,0.05943 -0.418508,0.08901 -0.672684,0.08901 -0.205969,0 -0.405908,-0.02546 -0.599829,-0.07613 -0.193371,-0.05065 -0.364826,-0.130357 -0.513277,-0.238807 -0.147901,-0.10845 -0.265675,-0.24675 -0.353321,-0.414355 -0.0871,-0.16788 -0.128729,-0.366703 -0.125442,-0.597294 h 0.797581 c -1.7e-5,0.125702 0.02244,0.232234 0.06791,0.31932 z"
       id="path298"
       style="fill:#ffffff;stroke-width:0.560903" />
    <path
       d="m 53.322698,18.484103 1.398498,3.737679 h -0.853999 l -0.282661,-0.832546 h -1.398498 l -0.293065,0.832546 h -0.827159 l 1.41384,-3.737679 z m 0.04712,2.291686 -0.471094,-1.37041 h -0.01043 l -0.48753,1.37041 z"
       id="path300"
       style="fill:#ffffff;stroke-width:0.560903" />
    <path
       d="m 33.864745,18.484103 c 0.178029,0 0.340723,0.01587 0.48753,0.04711 0.146808,0.03147 0.272799,0.08298 0.377975,0.154459 0.104625,0.07148 0.186246,0.166511 0.243765,0.28509 0.05752,0.11858 0.08655,0.265102 0.08655,0.439549 0,0.18842 -0.04274,0.345065 -0.128729,0.470773 -0.08545,0.125703 -0.212543,0.228404 -0.380162,0.308642 0.231167,0.06627 0.403721,0.182395 0.517658,0.348352 0.113937,0.165956 0.170911,0.365878 0.170911,0.599761 0,0.18842 -0.03668,0.351639 -0.110106,0.489669 -0.0734,0.137756 -0.172554,0.250311 -0.296352,0.337673 -0.124348,0.08736 -0.266225,0.151996 -0.425082,0.193618 -0.159406,0.04218 -0.322649,0.06299 -0.490817,0.06299 H 32.102519 V 18.48411 h 1.762224 z m -0.105175,1.511722 c 0.146808,0 0.267319,-0.03477 0.362089,-0.104345 0.09422,-0.06983 0.141327,-0.182664 0.141327,-0.339316 0,-0.08709 -0.01587,-0.158563 -0.04712,-0.214163 -0.03175,-0.05586 -0.0734,-0.09914 -0.125991,-0.130632 -0.05256,-0.03124 -0.112843,-0.05311 -0.180772,-0.06518 -0.06847,-0.01234 -0.13914,-0.01834 -0.212544,-0.01834 h -0.77019 v 0.87198 z m 0.04818,1.586216 c 0.08052,0 0.157213,-0.0077 0.230617,-0.02356 0.0734,-0.01559 0.13859,-0.0419 0.194465,-0.07833 0.05587,-0.03668 0.100244,-0.08654 0.133659,-0.149253 0.03343,-0.06271 0.04987,-0.142955 0.04987,-0.240726 0,-0.191706 -0.05424,-0.328637 -0.162693,-0.410519 -0.108462,-0.08188 -0.251983,-0.122965 -0.430012,-0.122965 H 32.92638 v 1.02534 z"
       id="path304"
       style="fill:#ffffff;stroke-width:0.560903" />
    <path
       d="m 35.385398,18.484103 h 0.921923 l 0.875366,1.476123 0.869885,-1.476123 h 0.916448 l -1.387543,2.303189 v 1.434496 h -0.823872 v -1.45531 z"
       id="path306"
       style="fill:#ffffff;stroke-width:0.560903" />
    <path
       id="path6318_1_"
       cx="475.97119"
       ry="29.209877"
       cy="252.08646"
       type="arc"
       rx="29.209877"
       d="m 57.800847,8.4558018 c 0.0021,3.2992282 -2.670462,5.9759602 -5.97033,5.9784212 -3.29932,0.0025 -5.976353,-2.670163 -5.979091,-5.9696506 0,-0.0028 0,-0.00603 0,-0.00876 -0.0021,-3.2994874 2.671006,-5.9756837 5.97033,-5.9784214 3.299868,-0.00245 5.976897,2.6704404 5.979091,5.9696719 0,0.00315 0,0.00575 0,0.00876 z"
       style="fill:#ffffff;stroke-width:0.350561" />
    <ellipse
       cx="35.76297"
       cy="8.5891638"
       id="circle315"
       style="fill:#ffffff;stroke-width:0.560903"
       rx="6.061677"
       ry="6.060998" />
    <g
       id="g3147"
       style="fill:url(#linearGradient3163);fill-opacity:1.0">
      <path
         id="path5708_2_"
         d="m 18.046017,4.7811093 c 1.706635,1.7067128 2.560087,3.7962849 2.560087,6.2681677 0,2.472158 -0.838674,4.539282 -2.515993,6.201892 -1.780034,1.75109 -3.88381,2.626351 -6.311343,2.626351 -2.3981982,0 -4.4655539,-0.867864 -6.2014795,-2.604432 -1.7362242,-1.736015 -2.6041846,-3.810522 -2.6041846,-6.223811 0,-2.4130186 0.8679604,-4.5023166 2.6041846,-6.2681677 1.6918423,-1.7069821 3.7591736,-2.5600692 6.2014795,-2.5600692 2.471901,0 4.560615,0.8530871 6.267249,2.5600692 z M 6.7262743,5.929139 c -1.4428792,1.4572243 -2.1640422,3.1642064 -2.1640422,5.122322 0,1.957577 0.7140483,3.650038 2.1418512,5.077441 1.428082,1.427907 3.1281309,2.141866 5.1007197,2.141866 1.972574,0 3.68716,-0.721083 5.144548,-2.163531 1.383705,-1.339457 2.075831,-3.024265 2.075831,-5.055776 0,-2.0161768 -0.703364,-3.7272568 -2.10926,-5.133289 -1.405611,-1.4054691 -3.109225,-2.1084559 -5.111119,-2.1084559 -2.0018749,0 -3.6950931,0.7065755 -5.0785287,2.1194229 z m 3.7969937,4.261015 C 10.302769,9.7095512 9.9727391,9.4693553 9.532582,9.4693553 c -0.7781241,0 -1.1670441,0.523633 -1.1670441,1.5708697 0,1.047535 0.38892,1.571168 1.1670441,1.571168 0.51383,0 0.880858,-0.255227 1.101059,-0.766277 l 1.078583,0.574311 c -0.514099,0.913332 -1.285363,1.370385 -2.3138407,1.370385 -0.7931857,0 -1.4286206,-0.243183 -1.9057512,-0.729283 -0.4779337,-0.48637 -0.7162322,-1.156784 -0.7162322,-2.011247 0,-0.839941 0.2459468,-1.5065313 0.7381391,-2.0003087 0.4921924,-0.4934787 1.105167,-0.7405191 1.8400157,-0.7405191 1.0870843,0 1.8654923,0.4283379 2.3360323,1.2841423 z m 5.074421,0 C 15.37692,9.7095512 15.053451,9.4693553 14.627009,9.4693553 c -0.793753,0 -1.190895,0.523633 -1.190895,1.5708697 0,1.047535 0.397142,1.571168 1.190895,1.571168 0.514638,0 0.87509,-0.255227 1.080778,-0.766277 l 1.102699,0.574311 c -0.513277,0.913332 -1.283469,1.370385 -2.310017,1.370385 -0.792113,0 -1.426172,-0.243183 -1.903014,-0.729283 -0.476024,-0.48637 -0.714587,-1.156784 -0.714587,-2.011247 0,-0.839941 0.242123,-1.5065313 0.726094,-2.0003087 0.483687,-0.4934787 1.099398,-0.7405191 1.847683,-0.7405191 1.08516,0 1.862476,0.4283379 2.331385,1.2841423 z"
         style="fill:url(#linearGradient3163);fill-opacity:1.0;stroke-width:0.489624" />
      <path
         id="path6324_1_"
         d="m 48.88232,7.5320579 c 0.260752,-1.6467361 1.420418,-2.5269216 2.873151,-2.5269216 2.089803,0 3.36286,1.5160961 3.36286,3.537768 0,1.9726307 -1.354683,3.5051607 -3.395727,3.5051607 -1.403981,0 -2.660607,-0.864029 -2.889586,-2.5592485 h 1.648849 c 0.0493,0.8802065 0.62064,1.1899455 1.436838,1.1899455 0.930151,0 1.534903,-0.8640504 1.534903,-2.1848949 0,-1.3854563 -0.522586,-2.1191471 -1.502583,-2.1191471 -0.718151,0 -1.338237,0.2610029 -1.469158,1.1573379 l 0.479854,-0.00245 -1.298257,1.297565 -1.29771,-1.297565 z"
         style="fill:url(#linearGradient3163);fill-opacity:1.0;stroke-width:0.350561" />
      <path
         d="m 37.517396,6.8353477 c 0,-0.2336028 -0.189534,-0.4225715 -0.422894,-0.4225715 h -2.677035 c -0.23336,0 -0.422894,0.1889631 -0.422894,0.4225715 v 2.67701 h 0.746632 v 3.1702343 h 2.029004 V 9.5123577 h 0.747181 v -2.67701 z"
         id="path319"
         style="fill:url(#linearGradient3163);fill-opacity:1.0;stroke-width:0.560903" />
      <ellipse
         cx="35.755989"
         cy="5.1445165"
         id="circle321"
         style="fill:url(#linearGradient3163);fill-opacity:1.0;stroke-width:0.560903"
         rx="0.91562378"
         ry="0.9155212" />
      <path
         id="path6322_1_"
         d="m 51.783406,1.9113011 c -1.813184,0 -3.347529,0.6326191 -4.603601,1.8975977 -1.28895,1.3090768 -1.933149,2.8580363 -1.933149,4.646903 0,1.7888662 0.644199,3.3271732 1.933149,4.6140392 1.288392,1.287168 2.823284,1.930738 4.603601,1.930738 1.802217,0 3.363953,-0.649049 4.686313,-1.947171 1.24458,-1.232371 1.867405,-2.765181 1.867405,-4.5976062 0,-1.8321481 -0.633781,-3.3816649 -1.900819,-4.646903 C 55.169281,2.5439202 53.61849,1.9113011 51.783406,1.9113011 Z m 0.01644,1.1778796 c 1.485594,0 2.747152,0.5233517 3.785212,1.5706124 1.047911,1.0363063 1.572148,2.3015409 1.572148,3.7960087 0,1.5051627 -0.512731,2.7542482 -1.539835,3.7469922 -1.081325,1.068893 -2.353839,1.603199 -3.817522,1.603199 -1.463692,0 -2.72524,-0.529108 -3.784664,-1.586765 -1.059414,-1.058472 -1.589128,-2.3124958 -1.589128,-3.7634227 0,-1.4506501 0.53519,-2.7161616 1.605559,-3.7960087 1.026554,-1.0472642 2.282626,-1.5706159 3.76823,-1.5706159 z"
         style="fill:url(#linearGradient3163);fill-opacity:1.0;stroke-width:0.350561" />
      <path
         clip-rule="evenodd"
         d="m 35.747498,1.9112916 c -1.81263,0 -3.3478,0.6323486 -4.603877,1.8978702 -1.288942,1.308518 -1.933141,2.8577563 -1.933141,4.6463576 0,1.7886016 0.644199,3.3271606 1.933141,4.6143146 1.288942,1.28688 2.823842,1.930457 4.603877,1.930457 1.802219,0 3.36451,-0.648782 4.685773,-1.947165 1.245666,-1.23211 1.867955,-2.764921 1.867955,-4.5976122 0,-1.8326914 -0.633244,-3.3813856 -1.900276,-4.6463576 -1.267032,-1.265516 -2.818368,-1.8978646 -4.653452,-1.8978646 z m 0.01644,1.1776107 c 1.4856,0 2.747152,0.5236237 3.784661,1.5708767 1.049014,1.0360244 1.573246,2.301546 1.573246,3.7957404 0,1.5051482 -0.513277,2.7545116 -1.540375,3.7469896 -1.08133,1.068886 -2.353842,1.603194 -3.817526,1.603194 -1.463685,0 -2.725242,-0.528829 -3.784386,-1.587035 -1.059969,-1.057932 -1.589407,-2.3122254 -1.589407,-3.7631486 0,-1.450654 0.535187,-2.7159008 1.605562,-3.7957404 1.026829,-1.047253 2.283175,-1.5708767 3.768225,-1.5708767 z"
         id="path323"
         style="fill:url(#linearGradient3163);fill-opacity:1.0;fill-rule:evenodd;stroke-width:0.560903" />
    </g>
  </g>
</svg>
