<?xml version="1.0" encoding="UTF-8" standalone="no"?>
<!-- Created with Inkscape (http://www.inkscape.org/) -->

<svg
   width="400"
   height="400"
   viewBox="0 0 105.83333 105.83334"
   version="1.1"
   id="svg20"
   inkscape:version="1.1 (c68e22c387, 2021-05-23)"
   sodipodi:docname="btrfs-logo.svg"
   xmlns:inkscape="http://www.inkscape.org/namespaces/inkscape"
   xmlns:sodipodi="http://sodipodi.sourceforge.net/DTD/sodipodi-0.dtd"
   xmlns="http://www.w3.org/2000/svg"
   xmlns:svg="http://www.w3.org/2000/svg">
  <sodipodi:namedview
     id="namedview22"
     pagecolor="#ffffff"
     bordercolor="#666666"
     borderopacity="1.0"
     inkscape:pageshadow="2"
     inkscape:pageopacity="0.0"
     inkscape:pagecheckerboard="0"
     inkscape:document-units="mm"
     showgrid="false"
     units="px"
     inkscape:zoom="1.7577085"
     inkscape:cx="115.20682"
     inkscape:cy="184.89983"
     inkscape:window-width="2240"
     inkscape:window-height="1306"
     inkscape:window-x="-11"
     inkscape:window-y="-11"
     inkscape:window-maximized="1"
     inkscape:current-layer="layer1" />
  <defs
     id="defs17">
    <linearGradient
       id="g5142_1_"
       gradientUnits="userSpaceOnUse"
       x1="328.67831"
       y1="130.7179"
       x2="92.408401"
       y2="-105.5421"
       gradientTransform="matrix(0.26458333,0,0,-0.26458333,0.00264465,66.159065)">
      <stop
         offset="0"
         style="stop-color:#DF4994"
         id="stop4" />
      <stop
         offset="0.5"
         style="stop-color:#714897"
         id="stop6" />
      <stop
         offset="1"
         style="stop-color:#2D7FB8"
         id="stop8" />
    </linearGradient>
  </defs>
  <g
     inkscape:label="图层 1"
     inkscape:groupmode="layer"
     id="layer1">
    <path
       id="g5142"
       class="st0"
       d="m 68.143436,20.227399 c -1.905,0 -3.466041,1.561042 -3.466041,3.466042 v 7.911041 c 0,0.873125 0.343958,1.719792 0.926041,2.354792 -0.608541,0.635 -0.926041,1.481666 -0.926041,2.354791 v 7.88458 c 0,0.47625 0.105833,0.9525 0.291041,1.4023 h -17.93875 c -1.905,0 -3.466041,1.56104 -3.466041,3.4925 v 7.88458 c 0,0.87312 0.343958,1.71979 0.926041,2.35479 -0.608541,0.635 -0.926041,1.48167 -0.926041,2.35479 v 7.88459 c 0,1.905 1.561041,3.46604 3.466041,3.46604 h 17.859375 c -0.15875,0.39687 -0.238125,0.79375 -0.238125,1.21708 v 7.88458 c 0,1.905 1.561042,3.46604 3.466042,3.46604 h 6.0325 c 1.905,0 3.466041,-1.56104 3.4925,-3.46604 v -7.88458 c 0,-0.87313 -0.343959,-1.71979 -0.926042,-2.35479 0.608542,-0.635 0.926042,-1.48167 0.926042,-2.35479 v -7.88459 c 0,-1.93145 -1.561042,-3.46604 -3.4925,-3.4925 h -6.0325 c -1.931458,0 -3.466042,1.56105 -3.466042,3.4925 v 7.88459 c 0,0.47625 0.105834,0.9525 0.291042,1.40229 h -8.704792 c 0.185209,-0.44979 0.291042,-0.92604 0.291042,-1.40229 v -7.88459 c 0,-0.87312 -0.343958,-1.71979 -0.926042,-2.35479 0.608542,-0.635 0.926042,-1.48166 0.926042,-2.35479 v -7.88458 c 0,-0.47625 -0.105833,-0.9525 -0.291042,-1.40229 h 17.93875 c 1.905,0 3.466042,-1.56105 3.4925,-3.46605 v -7.88458 c 0,-0.873125 -0.343958,-1.719791 -0.926042,-2.354791 0.608542,-0.635 0.926042,-1.481667 0.926042,-2.354792 v -7.911041 c 0,-1.905 -1.561042,-3.466042 -3.4925,-3.466042 z m 0,2.090208 h 6.0325 c 0.740833,-0.02646 1.375833,0.582084 1.402292,1.322917 0,0.02646 0,0.02646 0,0.05292 v 7.911041 c 0,0.555625 -0.3175,1.058334 -0.846667,1.27 h -7.14375 c -0.529166,-0.211666 -0.846666,-0.714375 -0.846666,-1.27 v -7.911041 c -0.02646,-0.740834 0.582083,-1.375834 1.322916,-1.402292 0.05292,0.02646 0.05292,0.02646 0.07937,0.02646 z m -0.555625,12.7 h 7.14375 c 0.502708,0.211667 0.846667,0.714375 0.820208,1.27 v 7.884588 c 0.02646,0.76729 -0.582083,1.37583 -1.349375,1.40229 -0.02646,0 -0.02646,0 -0.05292,0 h -6.0325 c -0.740833,0.0265 -1.375833,-0.58209 -1.402292,-1.32292 0,-0.0265 0,-0.0265 0,-0.0529 v -7.88458 c 0.02646,-0.555625 0.370417,-1.084791 0.873125,-1.296458 z M 47.029686,47.664695 h 6.0325 c 0.740834,0 1.375834,0.58208 1.375834,1.34937 0,0.0265 0,0.0265 0,0.0529 v 7.88458 c 0,0.55563 -0.3175,1.05833 -0.820209,1.29646 h -7.170208 c -0.502708,-0.21167 -0.846667,-0.74083 -0.820208,-1.29646 v -7.88458 c -0.02646,-0.76729 0.582083,-1.37584 1.349375,-1.40229 0.02646,0 0.02646,0 0.05292,0 z m 21.11375,12.62062 h 6.0325 c 0.767292,-0.0265 1.375833,0.58208 1.402292,1.34938 0,0.0265 0,0.0265 0,0.0529 v 7.88459 c 0,0.55562 -0.3175,1.05833 -0.820209,1.29645 h -7.170208 c -0.502708,-0.21166 -0.846666,-0.71437 -0.820208,-1.29645 v -7.88459 c -0.02646,-0.74083 0.582083,-1.37583 1.349375,-1.37583 0,-0.0265 0.02646,-0.0265 0.02646,-0.0265 z m -21.669375,0.10583 h 7.14375 c 0.502709,0.21167 0.846667,0.71438 0.820209,1.27 v 7.88459 c 0.02646,0.74083 -0.582084,1.37583 -1.322917,1.40229 -0.02646,0 -0.02646,0 -0.05292,0 h -6.032497 c -0.740833,0.0265 -1.375833,-0.58208 -1.402291,-1.34938 0,-0.0265 0,-0.0265 0,-0.0529 v -7.88459 c 0,-0.55562 0.343958,-1.05833 0.846666,-1.27 z m 28.2575,12.59417 c 0.502708,0.21167 0.846667,0.71437 0.820208,1.27 v 7.88458 c 0.02646,0.74084 -0.582083,1.37584 -1.349375,1.40229 -0.02646,0 -0.02646,0 -0.05292,0 h -6.0325 c -0.740833,0.0265 -1.375833,-0.58208 -1.375833,-1.32291 0,-0.0265 0,-0.0265 0,-0.0529 v -7.88458 c 0,-0.50271 0.264583,-0.97896 0.714375,-1.21708 1.031874,-0.0265 4.947708,-0.0794 7.276041,-0.0794 z m 11.535833,-13.0175 c -1.905,0.0265 -3.439583,1.56104 -3.466041,3.46604 v 20.39938 h 5.212291 v -12.54125 h 3.042709 v -5.21229 h -3.069167 v -0.9525 h 3.069167 v -5.2123 h -4.788959 z m 11.006667,6.16479 c -1.905,0.0265 -3.466042,1.56104 -3.466042,3.46604 v 1.74625 l 4.312708,7.32896 h -4.312708 v 5.21229 h 6.932081 c 1.905,-0.0265 3.43959,-1.56104 3.46605,-3.46604 v -1.74625 l -4.312713,-7.32896 h 4.312713 v -5.21229 z M 23.561145,47.373645 c -1.905,0.0265 -3.439583,1.56105 -3.466042,3.46605 v 2.67229 h -2.592916 v 5.21229 h 2.619375 v 12.54125 h 5.185833 v -12.54125 h 2.592917 v -5.21229 h -2.592917 v -6.13834 z m 11.509375,6.13834 c -1.905,0.0265 -3.439583,1.56104 -3.466042,3.46604 v 14.26104 h 5.212292 v -12.54125 h 3.069166 v -5.21229 H 35.07052 Z M 5.0932286,47.373645 c -1.905,0.0265 -3.439584,1.56105 -3.466042,3.46605 v 20.42583 H 12.157604 c 1.905,-0.0265 3.439583,-1.56104 3.466041,-3.46604 V 53.538445 H 6.8130196 v -6.13834 h -1.719791 z m 1.719791,11.35063 h 3.5983344 v 7.32896 H 6.8130196 Z"
       style="fill:url(#g5142_1_);stroke-width:0.264583" />
  </g>
</svg>
