<svg width="400" height="400" viewBox="0 0 400 400" fill="none" xmlns="http://www.w3.org/2000/svg">
<path d="M257.55 76.45C250.35 76.45 244.45 82.35 244.45 89.55V119.45C244.45 122.75 245.75 125.95 247.95 128.35C245.65 130.75 244.45 133.95 244.45 137.25V167.05C244.45 168.85 244.85 170.65 245.55 172.35H177.75C170.55 172.35 164.65 178.25 164.65 185.55V215.35C164.65 218.65 165.95 221.85 168.15 224.25C165.85 226.65 164.65 229.85 164.65 233.15V262.95C164.65 270.15 170.55 276.05 177.75 276.05H245.25C244.65 277.55 244.35 279.05 244.35 280.65V310.45C244.35 317.65 250.25 323.55 257.45 323.55H280.25C287.45 323.55 293.35 317.65 293.45 310.45V280.65C293.45 277.35 292.15 274.15 289.95 271.75C292.25 269.35 293.45 266.15 293.45 262.85V233.05C293.45 225.75 287.55 219.95 280.25 219.85H257.45C250.15 219.85 244.35 225.75 244.35 233.05V262.85C244.35 264.65 244.75 266.45 245.45 268.15H212.55C213.25 266.45 213.65 264.65 213.65 262.85V233.05C213.65 229.75 212.35 226.55 210.15 224.15C212.45 221.75 213.65 218.55 213.65 215.25V185.45C213.65 183.65 213.25 181.85 212.55 180.15H280.35C287.55 180.15 293.45 174.25 293.55 167.05V137.25C293.55 133.95 292.25 130.75 290.05 128.35C292.35 125.95 293.55 122.75 293.55 119.45V89.55C293.55 82.35 287.65 76.45 280.35 76.45H257.55ZM257.55 84.35H280.35C283.15 84.25 285.55 86.55 285.65 89.35C285.65 89.45 285.65 89.45 285.65 89.55V119.45C285.65 121.55 284.45 123.45 282.45 124.25H255.45C253.45 123.45 252.25 121.55 252.25 119.45V89.55C252.15 86.75 254.45 84.35 257.25 84.25C257.45 84.35 257.45 84.35 257.55 84.35ZM255.45 132.35H282.45C284.35 133.15 285.65 135.05 285.55 137.15V166.95C285.65 169.85 283.35 172.15 280.45 172.25C280.35 172.25 280.35 172.25 280.25 172.25H257.45C254.65 172.35 252.25 170.05 252.15 167.25C252.15 167.15 252.15 167.15 252.15 167.05V137.25C252.25 135.15 253.55 133.15 255.45 132.35ZM177.75 180.15H200.55C203.35 180.15 205.75 182.35 205.75 185.25C205.75 185.35 205.75 185.35 205.75 185.45V215.25C205.75 217.35 204.55 219.25 202.65 220.15H175.55C173.65 219.35 172.35 217.35 172.45 215.25V185.45C172.35 182.55 174.65 180.25 177.55 180.15C177.65 180.15 177.65 180.15 177.75 180.15ZM257.55 227.85H280.35C283.25 227.75 285.55 230.05 285.65 232.95C285.65 233.05 285.65 233.05 285.65 233.15V262.95C285.65 265.05 284.45 266.95 282.55 267.85H255.45C253.55 267.05 252.25 265.15 252.35 262.95V233.15C252.25 230.35 254.55 227.95 257.45 227.95C257.45 227.85 257.55 227.85 257.55 227.85ZM175.65 228.25H202.65C204.55 229.05 205.85 230.95 205.75 233.05V262.85C205.85 265.65 203.55 268.05 200.75 268.15C200.65 268.15 200.65 268.15 200.55 268.15H177.75C174.95 268.25 172.55 265.95 172.45 263.05C172.45 262.95 172.45 262.95 172.45 262.85V233.05C172.45 230.95 173.75 229.05 175.65 228.25ZM282.45 275.85C284.35 276.65 285.65 278.55 285.55 280.65V310.45C285.65 313.25 283.35 315.65 280.45 315.75C280.35 315.75 280.35 315.75 280.25 315.75H257.45C254.65 315.85 252.25 313.55 252.25 310.75C252.25 310.65 252.25 310.65 252.25 310.55V280.75C252.25 278.85 253.25 277.05 254.95 276.15C258.85 276.05 273.65 275.85 282.45 275.85ZM326.05 226.65C318.85 226.75 313.05 232.55 312.95 239.75V316.85H332.65V269.45H344.15V249.75H332.55V246.15H344.15V226.45H326.05V226.65ZM367.65 249.95C360.45 250.05 354.55 255.85 354.55 263.05V269.65L370.85 297.35H354.55V317.05H380.75C387.95 316.95 393.75 311.15 393.85 303.95V297.35L377.55 269.65H393.85V249.95H367.65ZM89.05 179.05C81.85 179.15 76.05 184.95 75.95 192.15V202.25H66.15V221.95H76.05V269.35H95.65V221.95H105.45V202.25H95.65V179.05H89.05ZM132.55 202.25C125.35 202.35 119.55 208.15 119.45 215.35V269.25H139.15V221.85H150.75V202.15H132.55V202.25ZM19.25 179.05C12.05 179.15 6.25002 184.95 6.15002 192.15V269.35H45.95C53.15 269.25 58.95 263.45 59.05 256.25V202.35H25.75V179.15H19.25V179.05ZM25.75 221.95H39.35V249.65H25.75V221.95Z" fill="url(#paint0_linear_6_1293)"/>
<defs>
<linearGradient id="paint0_linear_6_1293" x1="393.85" y1="323.55" x2="-21.3928" y2="261.868" gradientUnits="userSpaceOnUse">
<stop stop-color="#625EB1"/>
<stop offset="0.526042" stop-color="#1D8FE1"/>
<stop offset="1" stop-color="#22E1FF"/>
</linearGradient>
</defs>
</svg>
