<svg width="63" height="17" viewBox="0 0 63 17" fill="none" xmlns="http://www.w3.org/2000/svg">
<path d="M2.736 16.08C2.07467 16.08 1.54667 15.84 1.152 15.36C0.757333 14.88 0.56 14.2507 0.56 13.472C0.56 12.6187 0.757333 11.8133 1.152 11.056C1.54667 10.288 2.06933 9.67467 2.72 9.216C3.38133 8.74667 4.08 8.512 4.816 8.512C5.05067 8.512 5.20533 8.56 5.28 8.656C5.36533 8.74133 5.43467 8.90133 5.488 9.136C5.712 9.09333 5.94667 9.072 6.192 9.072C6.71467 9.072 6.976 9.25867 6.976 9.632C6.976 9.856 6.896 10.3893 6.736 11.232C6.49067 12.4587 6.368 13.312 6.368 13.792C6.368 13.952 6.40533 14.08 6.48 14.176C6.56533 14.272 6.672 14.32 6.8 14.32C7.00267 14.32 7.248 14.192 7.536 13.936C7.824 13.6693 8.21333 13.2427 8.704 12.656C8.832 12.5067 8.976 12.432 9.136 12.432C9.27467 12.432 9.38133 12.496 9.456 12.624C9.54133 12.752 9.584 12.928 9.584 13.152C9.584 13.5787 9.48267 13.9093 9.28 14.144C8.84267 14.688 8.37867 15.1467 7.888 15.52C7.39733 15.8933 6.92267 16.08 6.464 16.08C6.112 16.08 5.78667 15.9627 5.488 15.728C5.2 15.4827 4.98133 15.152 4.832 14.736C4.27733 15.632 3.57867 16.08 2.736 16.08ZM3.312 14.464C3.54667 14.464 3.77067 14.3253 3.984 14.048C4.19733 13.7707 4.352 13.4027 4.448 12.944L5.04 10C4.592 10.0107 4.176 10.1813 3.792 10.512C3.41867 10.832 3.12 11.2587 2.896 11.792C2.672 12.3253 2.56 12.8907 2.56 13.488C2.56 13.8187 2.624 14.064 2.752 14.224C2.89067 14.384 3.07733 14.464 3.312 14.464ZM9.41963 16.08C9.01429 16.08 8.72629 15.8667 8.55563 15.44C8.39563 15.0133 8.31563 14.3307 8.31563 13.392C8.31563 12.0053 8.51296 10.688 8.90763 9.44C9.00363 9.13067 9.15829 8.90667 9.37163 8.768C9.59563 8.61867 9.90496 8.544 10.2996 8.544C10.513 8.544 10.6623 8.57067 10.7476 8.624C10.833 8.67733 10.8756 8.77867 10.8756 8.928C10.8756 9.09867 10.7956 9.48267 10.6356 10.08C10.529 10.5067 10.4436 10.88 10.3796 11.2C10.3156 11.52 10.2623 11.9147 10.2196 12.384C10.5716 11.4667 10.9663 10.72 11.4036 10.144C11.841 9.568 12.2676 9.15733 12.6836 8.912C13.1103 8.66667 13.4996 8.544 13.8516 8.544C14.545 8.544 14.8916 8.89067 14.8916 9.584C14.8916 9.72267 14.8436 10.0587 14.7476 10.592C14.6623 11.0187 14.6196 11.2853 14.6196 11.392C14.6196 11.7653 14.753 11.952 15.0196 11.952C15.3183 11.952 15.7023 11.7173 16.1716 11.248C16.3103 11.1093 16.4543 11.04 16.6036 11.04C16.7423 11.04 16.849 11.104 16.9236 11.232C17.009 11.3493 17.0516 11.5093 17.0516 11.712C17.0516 12.1067 16.945 12.416 16.7316 12.64C16.433 12.9493 16.081 13.216 15.6756 13.44C15.281 13.6533 14.8596 13.76 14.4116 13.76C13.8463 13.76 13.4143 13.616 13.1156 13.328C12.8276 13.04 12.6836 12.6507 12.6836 12.16C12.6836 12 12.6996 11.84 12.7316 11.68C12.753 11.4667 12.7636 11.3227 12.7636 11.248C12.7636 11.0773 12.705 10.992 12.5876 10.992C12.4276 10.992 12.2143 11.1733 11.9476 11.536C11.6916 11.888 11.4356 12.3573 11.1796 12.944C10.9236 13.5307 10.7156 14.1493 10.5556 14.8C10.4383 15.3013 10.2996 15.6427 10.1396 15.824C9.99029 15.9947 9.75029 16.08 9.41963 16.08ZM18.6209 16.08C17.5755 16.08 16.7595 15.7867 16.1729 15.2C15.5969 14.6027 15.3089 13.8187 15.3089 12.848C15.3089 11.984 15.4795 11.2267 15.8209 10.576C16.1622 9.92533 16.6049 9.424 17.1489 9.072C17.6929 8.72 18.2635 8.544 18.8609 8.544C19.4475 8.544 19.9009 8.72 20.2209 9.072C20.5515 9.41333 20.7169 9.856 20.7169 10.4C20.7169 10.848 20.6155 11.2267 20.4129 11.536C20.2209 11.8453 19.9649 12 19.6449 12C19.4422 12 19.2769 11.952 19.1489 11.856C19.0315 11.76 18.9729 11.6267 18.9729 11.456C18.9729 11.3813 18.9835 11.296 19.0049 11.2C19.0262 11.104 19.0422 11.0347 19.0529 10.992C19.1062 10.832 19.1329 10.6827 19.1329 10.544C19.1329 10.4053 19.0955 10.2987 19.0209 10.224C18.9569 10.1493 18.8609 10.112 18.7329 10.112C18.4875 10.112 18.2582 10.224 18.0449 10.448C17.8315 10.6613 17.6609 10.9547 17.5329 11.328C17.4049 11.7013 17.3409 12.112 17.3409 12.56C17.3409 13.7973 17.8795 14.416 18.9569 14.416C19.3942 14.416 19.8635 14.272 20.3649 13.984C20.8769 13.6853 21.3782 13.2427 21.8689 12.656C21.9969 12.5067 22.1409 12.432 22.3009 12.432C22.4395 12.432 22.5462 12.496 22.6209 12.624C22.7062 12.752 22.7489 12.928 22.7489 13.152C22.7489 13.5573 22.6475 13.888 22.4449 14.144C21.9435 14.7627 21.3409 15.2427 20.6369 15.584C19.9435 15.9147 19.2715 16.08 18.6209 16.08ZM30.3355 12.432C30.4742 12.432 30.5808 12.496 30.6555 12.624C30.7408 12.752 30.7835 12.928 30.7835 13.152C30.7835 13.5787 30.6822 13.9093 30.4795 14.144C29.9888 14.7093 29.4822 15.1733 28.9595 15.536C28.4475 15.8987 27.8608 16.08 27.1995 16.08C26.6555 16.08 26.2448 15.9253 25.9675 15.616C25.6902 15.296 25.5515 14.8373 25.5515 14.24C25.5515 13.9413 25.6262 13.408 25.7755 12.64C25.9142 11.968 25.9835 11.504 25.9835 11.248C25.9835 11.0773 25.9248 10.992 25.8075 10.992C25.6688 10.992 25.4715 11.1733 25.2155 11.536C24.9595 11.888 24.7035 12.3573 24.4475 12.944C24.1915 13.5307 23.9835 14.1493 23.8235 14.8C23.6208 15.6533 23.1195 16.08 22.3195 16.08C21.9995 16.08 21.7862 15.968 21.6795 15.744C21.5835 15.5093 21.5355 15.0933 21.5355 14.496C21.5355 14.1547 21.5408 13.8827 21.5515 13.68L21.5675 12.4C21.5675 10.7573 21.7328 9.04533 22.0635 7.264C22.4048 5.48267 22.9008 3.98933 23.5515 2.784C24.2128 1.568 25.0022 0.959999 25.9195 0.959999C26.4102 0.959999 26.8048 1.17333 27.1035 1.6C27.4128 2.016 27.5675 2.56 27.5675 3.232C27.5675 4.30933 27.2528 5.42933 26.6235 6.592C25.9942 7.744 24.9702 9.09333 23.5515 10.64C23.5195 11.1947 23.5035 11.7653 23.5035 12.352C23.8555 11.4453 24.2448 10.7093 24.6715 10.144C25.1088 9.568 25.5355 9.15733 25.9515 8.912C26.3782 8.66667 26.7675 8.544 27.1195 8.544C27.8128 8.544 28.1595 8.89067 28.1595 9.584C28.1595 10 28.0422 10.752 27.8075 11.84C27.6048 12.768 27.5035 13.3813 27.5035 13.68C27.5035 14.1067 27.6582 14.32 27.9675 14.32C28.1808 14.32 28.4315 14.192 28.7195 13.936C29.0182 13.6693 29.4128 13.2427 29.9035 12.656C30.0315 12.5067 30.1755 12.432 30.3355 12.432ZM25.5835 2.544C25.3915 2.544 25.1782 2.82133 24.9435 3.376C24.7088 3.92 24.4795 4.66133 24.2555 5.6C24.0422 6.528 23.8662 7.54133 23.7275 8.64C24.3888 7.86133 24.9328 7.01333 25.3595 6.096C25.7968 5.17867 26.0155 4.34667 26.0155 3.6C26.0155 3.25867 25.9782 2.99733 25.9035 2.816C25.8288 2.63467 25.7222 2.544 25.5835 2.544ZM35.5508 12.432C35.6894 12.432 35.7961 12.496 35.8708 12.624C35.9561 12.752 35.9988 12.928 35.9988 13.152C35.9988 13.5787 35.8974 13.9093 35.6948 14.144C35.2361 14.7093 34.7348 15.1733 34.1908 15.536C33.6574 15.8987 33.0494 16.08 32.3668 16.08C31.4281 16.08 30.7294 15.6533 30.2708 14.8C29.8228 13.9467 29.5988 12.8427 29.5988 11.488C29.5988 10.1867 29.7641 8.704 30.0948 7.04C30.4361 5.376 30.9321 3.94667 31.5828 2.752C32.2441 1.55733 33.0281 0.959999 33.9348 0.959999C34.4468 0.959999 34.8468 1.2 35.1348 1.68C35.4334 2.14933 35.5828 2.82667 35.5828 3.712C35.5828 4.98133 35.2308 6.45333 34.5268 8.128C33.8228 9.80267 32.8681 11.4613 31.6628 13.104C31.7374 13.5413 31.8601 13.856 32.0308 14.048C32.2014 14.2293 32.4254 14.32 32.7028 14.32C33.1401 14.32 33.5241 14.1973 33.8548 13.952C34.1854 13.696 34.6068 13.264 35.1188 12.656C35.2468 12.5067 35.3908 12.432 35.5508 12.432ZM33.5828 2.544C33.3374 2.544 33.0601 2.98667 32.7508 3.872C32.4414 4.75733 32.1694 5.856 31.9348 7.168C31.7001 8.48 31.5721 9.73867 31.5508 10.944C32.3081 9.696 32.9108 8.448 33.3588 7.2C33.8068 5.94133 34.0308 4.79467 34.0308 3.76C34.0308 2.94933 33.8814 2.544 33.5828 2.544ZM36.8015 7.488C36.3535 7.488 36.0175 7.38667 35.7935 7.184C35.5695 6.97067 35.4575 6.67733 35.4575 6.304C35.4575 5.93067 35.6015 5.62133 35.8895 5.376C36.1882 5.12 36.5562 4.992 36.9935 4.992C37.3882 4.992 37.7082 5.088 37.9535 5.28C38.1988 5.472 38.3215 5.744 38.3215 6.096C38.3215 6.52267 38.1828 6.864 37.9055 7.12C37.6282 7.36533 37.2602 7.488 36.8015 7.488ZM36.6735 16.08C35.9802 16.08 35.4735 15.8347 35.1535 15.344C34.8442 14.8533 34.6895 14.2027 34.6895 13.392C34.6895 12.912 34.7482 12.2987 34.8655 11.552C34.9935 10.7947 35.1535 10.0907 35.3455 9.44C35.4415 9.09867 35.5695 8.864 35.7295 8.736C35.8895 8.608 36.1455 8.544 36.4975 8.544C37.0415 8.544 37.3135 8.72533 37.3135 9.088C37.3135 9.35467 37.2122 9.97333 37.0095 10.944C36.7535 12.1173 36.6255 12.912 36.6255 13.328C36.6255 13.648 36.6682 13.8933 36.7535 14.064C36.8388 14.2347 36.9828 14.32 37.1855 14.32C37.3775 14.32 37.6175 14.1867 37.9055 13.92C38.1935 13.6533 38.5775 13.232 39.0575 12.656C39.1855 12.5067 39.3295 12.432 39.4895 12.432C39.6282 12.432 39.7348 12.496 39.8095 12.624C39.8948 12.752 39.9375 12.928 39.9375 13.152C39.9375 13.5787 39.8362 13.9093 39.6335 14.144C38.5775 15.4347 37.5908 16.08 36.6735 16.08ZM39.779 16.08C39.3737 16.08 39.0857 15.8667 38.915 15.44C38.755 15.0133 38.675 14.3307 38.675 13.392C38.675 12.0053 38.8723 10.688 39.267 9.44C39.363 9.13067 39.5177 8.90667 39.731 8.768C39.955 8.61867 40.2643 8.544 40.659 8.544C40.8723 8.544 41.0217 8.57067 41.107 8.624C41.1923 8.67733 41.235 8.77867 41.235 8.928C41.235 9.09867 41.155 9.48267 40.995 10.08C40.8883 10.5067 40.803 10.88 40.739 11.2C40.675 11.52 40.6217 11.9147 40.579 12.384C40.931 11.4667 41.3257 10.72 41.763 10.144C42.2003 9.568 42.627 9.15733 43.043 8.912C43.4697 8.66667 43.859 8.544 44.211 8.544C44.9043 8.544 45.251 8.89067 45.251 9.584C45.251 10 45.1337 10.752 44.899 11.84C44.6963 12.768 44.595 13.3813 44.595 13.68C44.595 14.1067 44.7497 14.32 45.059 14.32C45.2723 14.32 45.523 14.192 45.811 13.936C46.1097 13.6693 46.5043 13.2427 46.995 12.656C47.123 12.5067 47.267 12.432 47.427 12.432C47.5657 12.432 47.6723 12.496 47.747 12.624C47.8323 12.752 47.875 12.928 47.875 13.152C47.875 13.5787 47.7737 13.9093 47.571 14.144C47.1123 14.7093 46.6163 15.1733 46.083 15.536C45.5603 15.8987 44.963 16.08 44.291 16.08C43.747 16.08 43.3363 15.9253 43.059 15.616C42.7817 15.296 42.643 14.8373 42.643 14.24C42.643 13.9413 42.7177 13.408 42.867 12.64C43.0057 11.968 43.075 11.504 43.075 11.248C43.075 11.0773 43.0163 10.992 42.899 10.992C42.7603 10.992 42.563 11.1733 42.307 11.536C42.0617 11.888 41.8057 12.3573 41.539 12.944C41.283 13.5307 41.075 14.1493 40.915 14.8C40.7977 15.3013 40.659 15.6427 40.499 15.824C40.3497 15.9947 40.1097 16.08 39.779 16.08ZM48.2125 16.08C47.7325 16.08 47.3378 15.8613 47.0285 15.424C46.7298 14.976 46.5805 14.4213 46.5805 13.76C46.5805 12.96 46.6338 12.2293 46.7405 11.568C46.8472 10.896 47.0232 10.1867 47.2685 9.44C47.3752 9.12 47.5245 8.89067 47.7165 8.752C47.9085 8.61333 48.2125 8.544 48.6285 8.544C48.8632 8.544 49.0232 8.58133 49.1085 8.656C49.2045 8.73067 49.2525 8.84267 49.2525 8.992C49.2525 9.07733 49.1938 9.36533 49.0765 9.856C48.9698 10.2507 48.8845 10.608 48.8205 10.928C48.6072 12.048 48.5005 12.7947 48.5005 13.168C48.5005 13.392 48.5272 13.552 48.5805 13.648C48.6338 13.7333 48.7192 13.776 48.8365 13.776C48.9965 13.776 49.1938 13.616 49.4285 13.296C49.6738 12.976 49.9298 12.4907 50.1965 11.84C50.4738 11.1893 50.7405 10.3893 50.9965 9.44C51.0818 9.12 51.2098 8.89067 51.3805 8.752C51.5618 8.61333 51.8285 8.544 52.1805 8.544C52.4258 8.544 52.5965 8.576 52.6925 8.64C52.7885 8.69333 52.8365 8.8 52.8365 8.96C52.8365 9.22667 52.7032 9.95733 52.4365 11.152C52.1378 12.5173 51.9885 13.36 51.9885 13.68C51.9885 13.8827 52.0312 14.0427 52.1165 14.16C52.2018 14.2667 52.3138 14.32 52.4525 14.32C52.6658 14.32 52.9165 14.192 53.2045 13.936C53.5032 13.6693 53.8978 13.2427 54.3885 12.656C54.5165 12.5067 54.6605 12.432 54.8205 12.432C54.9592 12.432 55.0658 12.496 55.1405 12.624C55.2258 12.752 55.2685 12.928 55.2685 13.152C55.2685 13.5787 55.1672 13.9093 54.9645 14.144C54.5058 14.7093 54.0098 15.1733 53.4765 15.536C52.9538 15.8987 52.3565 16.08 51.6845 16.08C51.1725 16.08 50.7938 15.8827 50.5485 15.488C50.3138 15.0933 50.1965 14.5387 50.1965 13.824C50.0152 14.5493 49.7432 15.1093 49.3805 15.504C49.0178 15.888 48.6285 16.08 48.2125 16.08ZM62.3391 12.912C62.4778 12.912 62.5845 12.976 62.6591 13.104C62.7445 13.232 62.7871 13.408 62.7871 13.632C62.7871 14.016 62.6965 14.3467 62.5151 14.624C61.8858 15.5947 60.9898 16.08 59.8271 16.08C59.3258 16.08 58.8778 15.984 58.4831 15.792C58.0991 15.5893 57.7845 15.3013 57.5391 14.928C56.9205 15.6853 56.2005 16.064 55.3791 16.064C54.7925 16.064 54.3285 15.8933 53.9871 15.552C53.6458 15.2107 53.4751 14.7573 53.4751 14.192C53.4751 13.6587 53.5978 13.2267 53.8431 12.896C54.0885 12.5653 54.4351 12.4 54.8831 12.4C55.2671 12.4 55.4591 12.544 55.4591 12.832C55.4591 12.9173 55.4485 13.0667 55.4271 13.28L55.3791 13.888C55.3791 14.208 55.5178 14.368 55.7951 14.368C55.9978 14.368 56.1898 14.2507 56.3711 14.016C56.5631 13.7707 56.7178 13.44 56.8351 13.024C56.9631 12.608 57.0271 12.1493 57.0271 11.648C57.0271 11.264 56.9791 10.944 56.8831 10.688C56.7871 10.4213 56.6698 10.288 56.5311 10.288C56.4138 10.288 56.3285 10.32 56.2751 10.384C56.2218 10.4373 56.1685 10.5333 56.1151 10.672C56.0511 10.8427 55.9658 10.9813 55.8591 11.088C55.7525 11.184 55.5658 11.232 55.2991 11.232C55.0645 11.232 54.8778 11.152 54.7391 10.992C54.6005 10.8213 54.5311 10.5653 54.5311 10.224C54.5311 9.68 54.6965 9.25333 55.0271 8.944C55.3578 8.63467 55.7845 8.48 56.3071 8.48C56.7551 8.48 57.1605 8.592 57.5231 8.816C57.8858 9.02933 58.1631 9.344 58.3551 9.76C58.6751 9.33333 59.0325 9.01333 59.4271 8.8C59.8325 8.58667 60.2271 8.48 60.6111 8.48C61.0271 8.48 61.3418 8.576 61.5551 8.768C61.7791 8.96 61.8911 9.26933 61.8911 9.696C61.8911 10.176 61.8005 10.5547 61.6191 10.832C61.4378 11.0987 61.2191 11.232 60.9631 11.232C60.7285 11.232 60.5685 11.184 60.4831 11.088C60.3978 10.992 60.3338 10.8533 60.2911 10.672C60.2698 10.544 60.2378 10.448 60.1951 10.384C60.1525 10.32 60.0778 10.288 59.9711 10.288C59.8431 10.288 59.7045 10.4107 59.5551 10.656C59.4165 10.8907 59.2938 11.2053 59.1871 11.6C59.0911 11.9947 59.0431 12.4053 59.0431 12.832C59.0431 13.312 59.1498 13.696 59.3631 13.984C59.5871 14.272 59.8538 14.416 60.1631 14.416C60.7498 14.416 61.3311 13.9947 61.9071 13.152C62.0138 12.992 62.1578 12.912 62.3391 12.912Z" fill="url(#paint0_linear_1_4)"/>
<defs>
<linearGradient id="paint0_linear_1_4" x1="63" y1="23" x2="-2.97096" y2="8.94701" gradientUnits="userSpaceOnUse">
<stop stop-color="#625EB1"/>
<stop offset="0.526042" stop-color="#1D8FE1"/>
<stop offset="1" stop-color="#22E1FF"/>
</linearGradient>
</defs>
</svg>
