<svg width="512" height="512" viewBox="0 0 512 512" fill="none" xmlns="http://www.w3.org/2000/svg">
<path d="M258.637 20.6697C257.594 18.215 254.086 18.2123 253.084 20.6837C233.419 69.163 220.6 102.64 198.168 150.742C197.648 151.856 197.853 153.188 198.699 154.081C209.013 164.977 221.026 177.067 237.418 190.317C240.207 192.572 237.58 197.065 234.372 195.461C217.447 186.997 204.172 178.472 193.288 169.749C191.76 168.524 189.486 168.997 188.636 170.761C158.436 233.401 111.542 322.256 19.3011 488.359C17.8234 491.02 20.776 494.002 23.4207 492.495C94.21 452.166 150.193 426.86 202.422 416.494C204.1 416.161 205.169 414.509 204.818 412.836C202.856 403.492 201.81 393.458 201.9 383.1L202 380.6C203.2 331.5 228.8 293.7 259 296.3C289.3 298.9 312.8 340.8 311.6 389.9C311.424 398.001 310.55 405.869 309.115 413.3C308.796 414.95 309.851 416.562 311.498 416.901C363.195 427.533 418.641 452.769 488.577 492.61C491.207 494.108 494.183 491.223 492.743 488.561C479.977 464.97 468.355 443.386 457.201 422.659C457.002 422.29 456.73 421.969 456.399 421.711C440.644 409.45 424.224 394.292 396.996 377.7C393.938 375.837 395.914 371.065 399.301 372.228C411.278 376.343 421.524 380.734 430.469 385.376C433.175 386.78 436.194 383.617 434.752 380.93C313.043 154.209 300.024 118.104 258.637 20.6697Z" fill="url(#paint0_linear_5_1218)"/>
<defs>
<linearGradient id="paint0_linear_5_1218" x1="497.8" y1="497.9" x2="-27.1007" y2="448.215" gradientUnits="userSpaceOnUse">
<stop stop-color="#625EB1"/>
<stop offset="0.526042" stop-color="#1D8FE1"/>
<stop offset="1" stop-color="#22E1FF"/>
</linearGradient>
</defs>
</svg>
